G04 ================== begin FILE IDENTIFICATION RECORD ==================*
G04 Layout Name:  LAYOUT.brd*
G04 Film Name:    FAB*
G04 File Format:  Gerber RS274X*
G04 File Origin:  Cadence Allegro 16.6-P004*
G04 Origin Date:  Sat Dec 06 09:43:16 2025*
G04 *
G04 Layer:  MANUFACTURING/NCDRILL_LEGEND*
G04 Layer:  MANUFACTURING/NCDRILL_FIGURE*
G04 Layer:  MANUFACTURING/XSECTION_CHART*
G04 Layer:  MANUFACTURING/NCLEGEND-1-2*
G04 Layer:  BOARD GEOMETRY/OUTLINE*
G04 Layer:  BOARD GEOMETRY/DIMENSION*
G04 *
G04 Offset:    (0.00 0.00)*
G04 Mirror:    No*
G04 Mode:      Positive*
G04 Rotation:  0*
G04 FullContactRelief:  No*
G04 UndefLineWidth:     7.00*
G04 ================== end FILE IDENTIFICATION RECORD ====================*
%FSLAX25Y25*MOIN*%
%IR0*IPPOS*OFA0.00000B0.00000*MIA0B0*SFA1.00000B1.00000*%
%AMMACRO10*
1,1,.007,.025,0.0*
20,1,.007,.025,0.0,.02462,-.004341,0.0*
1,1,.007,.02462,-.004341*
20,1,.007,.02462,-.004341,.023492,-.008551,0.0*
1,1,.007,.023492,-.008551*
20,1,.007,.023492,-.008551,.021651,-.0125,0.0*
1,1,.007,.021651,-.0125*
20,1,.007,.021651,-.0125,.019151,-.01607,0.0*
1,1,.007,.019151,-.01607*
20,1,.007,.019151,-.01607,.01607,-.019151,0.0*
1,1,.007,.01607,-.019151*
20,1,.007,.01607,-.019151,.0125,-.021651,0.0*
1,1,.007,.0125,-.021651*
20,1,.007,.0125,-.021651,.008551,-.023492,0.0*
1,1,.007,.008551,-.023492*
20,1,.007,.008551,-.023492,.004341,-.02462,0.0*
1,1,.007,.004341,-.02462*
20,1,.007,.004341,-.02462,0.0,-.025,0.0*
1,1,.007,0.0,-.025*
20,1,.007,0.0,-.025,-.004341,-.02462,0.0*
1,1,.007,-.004341,-.02462*
20,1,.007,-.004341,-.02462,-.008551,-.023492,0.0*
1,1,.007,-.008551,-.023492*
20,1,.007,-.008551,-.023492,-.0125,-.021651,0.0*
1,1,.007,-.0125,-.021651*
20,1,.007,-.0125,-.021651,-.01607,-.019151,0.0*
1,1,.007,-.01607,-.019151*
20,1,.007,-.01607,-.019151,-.019151,-.01607,0.0*
1,1,.007,-.019151,-.01607*
20,1,.007,-.019151,-.01607,-.021651,-.0125,0.0*
1,1,.007,-.021651,-.0125*
20,1,.007,-.021651,-.0125,-.023492,-.008551,0.0*
1,1,.007,-.023492,-.008551*
20,1,.007,-.023492,-.008551,-.02462,-.004341,0.0*
1,1,.007,-.02462,-.004341*
20,1,.007,-.02462,-.004341,-.025,0.0,0.0*
1,1,.007,-.025,0.0*
20,1,.007,-.025,0.0,-.02462,.004341,0.0*
1,1,.007,-.02462,.004341*
20,1,.007,-.02462,.004341,-.023492,.008551,0.0*
1,1,.007,-.023492,.008551*
20,1,.007,-.023492,.008551,-.021651,.0125,0.0*
1,1,.007,-.021651,.0125*
20,1,.007,-.021651,.0125,-.019151,.01607,0.0*
1,1,.007,-.019151,.01607*
20,1,.007,-.019151,.01607,-.01607,.019151,0.0*
1,1,.007,-.01607,.019151*
20,1,.007,-.01607,.019151,-.0125,.021651,0.0*
1,1,.007,-.0125,.021651*
20,1,.007,-.0125,.021651,-.008551,.023492,0.0*
1,1,.007,-.008551,.023492*
20,1,.007,-.008551,.023492,-.004341,.02462,0.0*
1,1,.007,-.004341,.02462*
20,1,.007,-.004341,.02462,0.0,.025,0.0*
1,1,.007,0.0,.025*
20,1,.007,0.0,.025,.004341,.02462,0.0*
1,1,.007,.004341,.02462*
20,1,.007,.004341,.02462,.008551,.023492,0.0*
1,1,.007,.008551,.023492*
20,1,.007,.008551,.023492,.0125,.021651,0.0*
1,1,.007,.0125,.021651*
20,1,.007,.0125,.021651,.01607,.019151,0.0*
1,1,.007,.01607,.019151*
20,1,.007,.01607,.019151,.019151,.01607,0.0*
1,1,.007,.019151,.01607*
20,1,.007,.019151,.01607,.021651,.0125,0.0*
1,1,.007,.021651,.0125*
20,1,.007,.021651,.0125,.023492,.008551,0.0*
1,1,.007,.023492,.008551*
20,1,.007,.023492,.008551,.02462,.004341,0.0*
1,1,.007,.02462,.004341*
20,1,.007,.02462,.004341,.025,0.0,0.0*
1,1,.007,.025,0.0*
1,1,.007,.0125,0.0*
20,1,.007,.0125,0.0,-.0125,0.0,0.0*
1,1,.007,-.0125,0.0*
1,1,.007,0.0,.0125*
20,1,.007,0.0,.0125,0.0,-.0125,0.0*
1,1,.007,0.0,-.0125*
%
%ADD10MACRO10*%
%ADD11C,.007*%
G75*
%LPD*%
G75*
G36*
G01X247350Y169896D02*
Y167624D01*
X249850D01*
Y-29400D01*
X247350D01*
Y-31672D01*
X262350D01*
Y-29400D01*
X259850D01*
Y167624D01*
X262350D01*
Y169896D01*
X247350D01*
G37*
G36*
G01X227350Y-31672D02*
Y-29400D01*
X287350D01*
Y-31672D01*
X227350D01*
G37*
G36*
G01Y167624D02*
Y169896D01*
X287350D01*
Y167624D01*
X227350D01*
G37*
G54D10*
X-139150Y-152250D03*
X26700Y67900D03*
X54600Y40000D03*
X56000Y65100D03*
X82700Y67500D03*
X121200Y39500D03*
X118900Y27900D03*
X117300Y89900D03*
X124100Y128500D03*
X147300Y27900D03*
X144000Y76700D03*
G54D11*
G01X-184100Y-166300D02*
Y-57000D01*
X299500D01*
Y-166300D01*
X-184100D01*
G01X-173095Y-128850D02*
Y-116350D01*
X-167205D01*
G01X-169375Y-122392D02*
X-173095D01*
G01X-159610Y-116350D02*
X-155890D01*
G01X-157750D02*
Y-128850D01*
G01X-159610D02*
X-155890D01*
G01X-144420Y-122600D02*
X-141320D01*
Y-126350D01*
X-142250Y-127600D01*
X-143335Y-128433D01*
X-144885Y-128850D01*
X-146435Y-128433D01*
X-147520Y-127600D01*
X-148450Y-126350D01*
X-149070Y-124892D01*
X-149380Y-123225D01*
Y-121767D01*
X-149070Y-120517D01*
X-148450Y-119058D01*
X-147520Y-117808D01*
X-146590Y-116975D01*
X-145350Y-116350D01*
X-144265D01*
X-143025Y-116767D01*
X-142095Y-117600D01*
G01X-136360Y-116350D02*
Y-125308D01*
X-135740Y-127184D01*
X-134500Y-128433D01*
X-132950Y-128850D01*
X-131400Y-128433D01*
X-130160Y-127184D01*
X-129540Y-125308D01*
Y-116350D01*
G01X-123650Y-128850D02*
Y-116350D01*
X-119775D01*
X-118535Y-116975D01*
X-117760Y-117808D01*
X-117450Y-119475D01*
X-117760Y-121142D01*
X-118690Y-122183D01*
X-119775Y-122808D01*
X-123650D01*
G01X-119775D02*
X-117450Y-128850D01*
G01X-105050D02*
X-111250D01*
Y-116350D01*
X-105050D01*
G01X-107530Y-122392D02*
X-111250D01*
G01X-184100Y-110100D02*
X299500D01*
G01X-184100Y-138200D02*
X299500D01*
G01X-184100Y-82000D02*
X299500D01*
G01X-100710Y-75750D02*
Y-63250D01*
X-97610D01*
X-96370Y-63875D01*
X-95440Y-64708D01*
X-94665Y-65958D01*
X-94045Y-67417D01*
X-93890Y-69500D01*
X-94045Y-71583D01*
X-94665Y-73042D01*
X-95440Y-74292D01*
X-96370Y-75125D01*
X-97610Y-75750D01*
X-100710D01*
G01X-88000D02*
Y-63250D01*
X-84125D01*
X-82885Y-63875D01*
X-82110Y-64708D01*
X-81800Y-66375D01*
X-82110Y-68042D01*
X-83040Y-69083D01*
X-84125Y-69708D01*
X-88000D01*
G01X-84125D02*
X-81800Y-75750D01*
G01X-74360Y-63250D02*
X-70640D01*
G01X-72500D02*
Y-75750D01*
G01X-74360D02*
X-70640D01*
G01X-63200Y-63250D02*
Y-75750D01*
X-57000D01*
G01X-50800Y-63250D02*
Y-75750D01*
X-44600D01*
G01X-19490Y-64292D02*
X-20420Y-63667D01*
X-21505Y-63250D01*
X-22745D01*
X-24140Y-63875D01*
X-25225Y-64917D01*
X-26000Y-66167D01*
X-26620Y-68250D01*
X-26775Y-70125D01*
X-26465Y-72000D01*
X-26000Y-73250D01*
X-25070Y-74500D01*
X-23985Y-75333D01*
X-22900Y-75750D01*
X-21815D01*
X-20730Y-75333D01*
X-19800Y-74709D01*
X-19025Y-73875D01*
G01X-13755Y-75750D02*
Y-63250D01*
G01X-7245D02*
Y-75750D01*
G01Y-69500D02*
X-13755D01*
G01X-1975Y-75750D02*
X1900Y-63250D01*
X5775Y-75750D01*
G01X4380Y-71375D02*
X-580D01*
G01X11200Y-75750D02*
Y-63250D01*
X15075D01*
X16315Y-63875D01*
X17090Y-64708D01*
X17400Y-66375D01*
X17090Y-68042D01*
X16160Y-69083D01*
X15075Y-69708D01*
X11200D01*
G01X15075D02*
X17400Y-75750D01*
G01X26700Y-63250D02*
Y-75750D01*
G01X23135Y-63250D02*
X30265D01*
G01X39100Y-76167D02*
X38790Y-75958D01*
Y-75542D01*
X39100Y-75333D01*
X39410Y-75542D01*
Y-75958D01*
X39100Y-76167D01*
G01Y-70542D02*
X38790Y-70333D01*
Y-69917D01*
X39100Y-69708D01*
X39410Y-69917D01*
Y-70333D01*
X39100Y-70542D01*
G01X63900Y-63250D02*
Y-75750D01*
G01X60335Y-63250D02*
X67465D01*
G01X76300Y-75750D02*
X75060Y-75542D01*
X73975Y-74709D01*
X73045Y-73458D01*
X72425Y-72000D01*
X72115Y-70333D01*
Y-68667D01*
X72425Y-67000D01*
X73045Y-65542D01*
X73975Y-64292D01*
X75060Y-63458D01*
X76300Y-63250D01*
X77540Y-63458D01*
X78625Y-64292D01*
X79555Y-65542D01*
X80175Y-67000D01*
X80485Y-68667D01*
Y-70333D01*
X80175Y-72000D01*
X79555Y-73458D01*
X78625Y-74709D01*
X77540Y-75542D01*
X76300Y-75750D01*
G01X85600D02*
Y-63250D01*
X89320D01*
X90560Y-63875D01*
X91490Y-65333D01*
X91800Y-67000D01*
X91490Y-68667D01*
X90715Y-69917D01*
X89320Y-70542D01*
X85600D01*
G01X113500Y-63250D02*
Y-75750D01*
G01X111330Y-67417D02*
X115670D01*
G01X125900Y-75750D02*
X124970Y-75542D01*
X124040Y-74709D01*
X123420Y-73250D01*
X123110Y-71583D01*
X123420Y-69917D01*
X124040Y-68458D01*
X124970Y-67625D01*
X125900Y-67417D01*
X126830Y-67625D01*
X127760Y-68458D01*
X128380Y-69917D01*
X128535Y-71583D01*
X128380Y-73250D01*
X127760Y-74709D01*
X126830Y-75542D01*
X125900Y-75750D01*
G01X151940Y-69083D02*
X152560Y-68458D01*
X153025Y-67417D01*
X153335Y-65958D01*
X153025Y-64708D01*
X152405Y-63875D01*
X151320Y-63250D01*
X147135D01*
Y-75750D01*
X152250D01*
X153335Y-74917D01*
X153955Y-73667D01*
X154265Y-72208D01*
X153955Y-70750D01*
X153025Y-69500D01*
X151940Y-69083D01*
X147135D01*
G01X163100Y-75750D02*
X161860Y-75542D01*
X160775Y-74709D01*
X159845Y-73458D01*
X159225Y-72000D01*
X158915Y-70333D01*
Y-68667D01*
X159225Y-67000D01*
X159845Y-65542D01*
X160775Y-64292D01*
X161860Y-63458D01*
X163100Y-63250D01*
X164340Y-63458D01*
X165425Y-64292D01*
X166355Y-65542D01*
X166975Y-67000D01*
X167285Y-68667D01*
Y-70333D01*
X166975Y-72000D01*
X166355Y-73458D01*
X165425Y-74709D01*
X164340Y-75542D01*
X163100Y-75750D01*
G01X175500Y-63250D02*
Y-75750D01*
G01X171935Y-63250D02*
X179065D01*
G01X187900D02*
Y-75750D01*
G01X184335Y-63250D02*
X191465D01*
G01X200300Y-75750D02*
X199060Y-75542D01*
X197975Y-74709D01*
X197045Y-73458D01*
X196425Y-72000D01*
X196115Y-70333D01*
Y-68667D01*
X196425Y-67000D01*
X197045Y-65542D01*
X197975Y-64292D01*
X199060Y-63458D01*
X200300Y-63250D01*
X201540Y-63458D01*
X202625Y-64292D01*
X203555Y-65542D01*
X204175Y-67000D01*
X204485Y-68667D01*
Y-70333D01*
X204175Y-72000D01*
X203555Y-73458D01*
X202625Y-74709D01*
X201540Y-75542D01*
X200300Y-75750D01*
G01X208670D02*
Y-63250D01*
X212700Y-73667D01*
X216730Y-63250D01*
Y-75750D01*
G01X-94200Y-110100D02*
Y-166300D01*
G01X-70175Y-100750D02*
X-66300Y-88250D01*
X-62425Y-100750D01*
G01X-63820Y-96375D02*
X-68780D01*
G01X-57000Y-88250D02*
Y-100750D01*
X-50800D01*
G01X-44600Y-88250D02*
Y-100750D01*
X-38400D01*
G01X-20110Y-88250D02*
Y-97208D01*
X-19490Y-99084D01*
X-18250Y-100333D01*
X-16700Y-100750D01*
X-15150Y-100333D01*
X-13910Y-99084D01*
X-13290Y-97208D01*
Y-88250D01*
G01X-7865Y-100750D02*
Y-88250D01*
X-735Y-100750D01*
Y-88250D01*
G01X6240D02*
X9960D01*
G01X8100D02*
Y-100750D01*
G01X6240D02*
X9960D01*
G01X20500Y-88250D02*
Y-100750D01*
G01X16935Y-88250D02*
X24065D01*
G01X29645Y-99084D02*
X30885Y-100125D01*
X32280Y-100750D01*
X33520D01*
X34760Y-100125D01*
X35690Y-99084D01*
X36155Y-97625D01*
X35845Y-96167D01*
X35070Y-94917D01*
X33675Y-94083D01*
X31815Y-93667D01*
X30730Y-92833D01*
X30265Y-91375D01*
X30575Y-89917D01*
X31350Y-88875D01*
X32435Y-88250D01*
X33520D01*
X34605Y-88667D01*
X35535Y-89708D01*
G01X53825Y-100750D02*
X57700Y-88250D01*
X61575Y-100750D01*
G01X60180Y-96375D02*
X55220D01*
G01X67000Y-100750D02*
Y-88250D01*
X70875D01*
X72115Y-88875D01*
X72890Y-89708D01*
X73200Y-91375D01*
X72890Y-93042D01*
X71960Y-94083D01*
X70875Y-94708D01*
X67000D01*
G01X70875D02*
X73200Y-100750D01*
G01X85600D02*
X79400D01*
Y-88250D01*
X85600D01*
G01X83120Y-94292D02*
X79400D01*
G01X105440Y-88250D02*
X109160D01*
G01X107300D02*
Y-100750D01*
G01X105440D02*
X109160D01*
G01X116135D02*
Y-88250D01*
X123265Y-100750D01*
Y-88250D01*
G01X140470Y-100750D02*
Y-88250D01*
X144500Y-98667D01*
X148530Y-88250D01*
Y-100750D01*
G01X155040Y-88250D02*
X158760D01*
G01X156900D02*
Y-100750D01*
G01X155040D02*
X158760D01*
G01X166200Y-88250D02*
Y-100750D01*
X172400D01*
G01X178445Y-99084D02*
X179685Y-100125D01*
X181080Y-100750D01*
X182320D01*
X183560Y-100125D01*
X184490Y-99084D01*
X184955Y-97625D01*
X184645Y-96167D01*
X183870Y-94917D01*
X182475Y-94083D01*
X180615Y-93667D01*
X179530Y-92833D01*
X179065Y-91375D01*
X179375Y-89917D01*
X180150Y-88875D01*
X181235Y-88250D01*
X182320D01*
X183405Y-88667D01*
X184335Y-89708D01*
G01X-48600Y88750D02*
Y101250D01*
X-50460Y98750D01*
G01Y88750D02*
X-46740D01*
G01X-36200Y88333D02*
X-36510Y88542D01*
Y88958D01*
X-36200Y89167D01*
X-35890Y88958D01*
Y88542D01*
X-36200Y88333D01*
G01X-27210Y90625D02*
X-26280Y89583D01*
X-25195Y88958D01*
X-23800Y88750D01*
X-22405Y89167D01*
X-21320Y90000D01*
X-20545Y91458D01*
X-20390Y93125D01*
X-20700Y94792D01*
X-21475Y95833D01*
X-22560Y96667D01*
X-23645Y96875D01*
X-24730Y96667D01*
X-26125Y95833D01*
X-25660Y101250D01*
X-21475D01*
G01X-11710Y88750D02*
X-11400Y91458D01*
X-10935Y93750D01*
X-10315Y95833D01*
X-9540Y98125D01*
X-8300Y101250D01*
X-14500D01*
G01X-24450Y-158500D02*
Y-146000D01*
X-26310Y-148500D01*
G01Y-158500D02*
X-22590D01*
G01X-15460Y-156625D02*
X-14530Y-157667D01*
X-13445Y-158292D01*
X-12050Y-158500D01*
X-10655Y-158083D01*
X-9570Y-157250D01*
X-8795Y-155792D01*
X-8640Y-154125D01*
X-8950Y-152458D01*
X-9725Y-151417D01*
X-10810Y-150583D01*
X-11895Y-150375D01*
X-12980Y-150583D01*
X-14375Y-151417D01*
X-13910Y-146000D01*
X-9725D01*
G01X350Y-158917D02*
X40Y-158708D01*
Y-158292D01*
X350Y-158083D01*
X660Y-158292D01*
Y-158708D01*
X350Y-158917D01*
G01X12440Y-158500D02*
X12750Y-155792D01*
X13215Y-153500D01*
X13835Y-151417D01*
X14610Y-149125D01*
X15850Y-146000D01*
X9650D01*
G01X27010Y-158500D02*
Y-146000D01*
X21275Y-154958D01*
X29025D01*
G01X-21505Y-127184D02*
X-20265Y-128225D01*
X-18870Y-128850D01*
X-17630D01*
X-16390Y-128225D01*
X-15460Y-127184D01*
X-14995Y-125725D01*
X-15305Y-124267D01*
X-16080Y-123017D01*
X-17475Y-122183D01*
X-19335Y-121767D01*
X-20420Y-120933D01*
X-20885Y-119475D01*
X-20575Y-118017D01*
X-19800Y-116975D01*
X-18715Y-116350D01*
X-17630D01*
X-16545Y-116767D01*
X-15615Y-117808D01*
G01X-7710Y-116350D02*
X-3990D01*
G01X-5850D02*
Y-128850D01*
G01X-7710D02*
X-3990D01*
G01X3605Y-116350D02*
X9495D01*
X3605Y-128850D01*
X9495D01*
G01X22050D02*
X15850D01*
Y-116350D01*
X22050D01*
G01X19570Y-122392D02*
X15850D01*
G01X-10000Y0D02*
X-40000D01*
G01X-30000Y79375D02*
Y0D01*
G01X-32500Y15000D02*
X-30000Y0D01*
X-27500Y15000D01*
X-32500D01*
G01X-30000Y110625D02*
Y157480D01*
G01X-10000D02*
X-40000D01*
G01X-27500Y142480D02*
X-30000Y157480D01*
X-32500Y142480D01*
X-27500D01*
G01X0Y-10000D02*
Y-27500D01*
G01Y0D02*
Y157480D01*
X157480D01*
Y0D01*
X0D01*
G01X67375Y-17500D02*
X0D01*
G01X15000Y-15000D02*
X0Y-17500D01*
X15000Y-20000D01*
Y-15000D01*
G01X0Y167480D02*
Y187500D01*
G01X39875Y177500D02*
X0D01*
G01X15000Y180000D02*
X0Y177500D01*
X15000Y175000D01*
Y180000D01*
G01X53900Y171250D02*
Y183750D01*
X52040Y181250D01*
G01Y171250D02*
X55760D01*
G01X66300Y170833D02*
X65990Y171042D01*
Y171458D01*
X66300Y171667D01*
X66610Y171458D01*
Y171042D01*
X66300Y170833D01*
G01X75290Y173125D02*
X76220Y172083D01*
X77305Y171458D01*
X78700Y171250D01*
X80095Y171667D01*
X81180Y172500D01*
X81955Y173958D01*
X82110Y175625D01*
X81800Y177292D01*
X81025Y178333D01*
X79940Y179167D01*
X78855Y179375D01*
X77770Y179167D01*
X76375Y178333D01*
X76840Y183750D01*
X81025D01*
G01X90790Y171250D02*
X91100Y173958D01*
X91565Y176250D01*
X92185Y178333D01*
X92960Y180625D01*
X94200Y183750D01*
X88000D01*
G01X81400Y-23750D02*
Y-11250D01*
X79540Y-13750D01*
G01Y-23750D02*
X83260D01*
G01X93800Y-24167D02*
X93490Y-23958D01*
Y-23542D01*
X93800Y-23333D01*
X94110Y-23542D01*
Y-23958D01*
X93800Y-24167D01*
G01X102790Y-21875D02*
X103720Y-22917D01*
X104805Y-23542D01*
X106200Y-23750D01*
X107595Y-23333D01*
X108680Y-22500D01*
X109455Y-21042D01*
X109610Y-19375D01*
X109300Y-17708D01*
X108525Y-16667D01*
X107440Y-15833D01*
X106355Y-15625D01*
X105270Y-15833D01*
X103875Y-16667D01*
X104340Y-11250D01*
X108525D01*
G01X118290Y-23750D02*
X118600Y-21042D01*
X119065Y-18750D01*
X119685Y-16667D01*
X120460Y-14375D01*
X121700Y-11250D01*
X115500D01*
G01X94900Y-110100D02*
Y-166300D01*
G01X105125Y177500D02*
X157480D01*
G01X124350Y-158500D02*
Y-146000D01*
X128070D01*
X129310Y-146625D01*
X130240Y-148083D01*
X130550Y-149750D01*
X130240Y-151417D01*
X129465Y-152667D01*
X128070Y-153292D01*
X124350D01*
G01X136750Y-146000D02*
Y-158500D01*
X142950D01*
G01X148375D02*
X152250Y-146000D01*
X156125Y-158500D01*
G01X154730Y-154125D02*
X149770D01*
G01X164650Y-146000D02*
Y-158500D01*
G01X161085Y-146000D02*
X168215D01*
G01X180150Y-158500D02*
X173950D01*
Y-146000D01*
X180150D01*
G01X177670Y-152042D02*
X173950D01*
G01X186040Y-158500D02*
Y-146000D01*
X189140D01*
X190380Y-146625D01*
X191310Y-147458D01*
X192085Y-148708D01*
X192705Y-150167D01*
X192860Y-152250D01*
X192705Y-154333D01*
X192085Y-155792D01*
X191310Y-157042D01*
X190380Y-157875D01*
X189140Y-158500D01*
X186040D01*
G01X124350Y-128850D02*
Y-116350D01*
X128070D01*
X129310Y-116975D01*
X130240Y-118433D01*
X130550Y-120100D01*
X130240Y-121767D01*
X129465Y-123017D01*
X128070Y-123642D01*
X124350D01*
G01X136750Y-116350D02*
Y-128850D01*
X142950D01*
G01X148375D02*
X152250Y-116350D01*
X156125Y-128850D01*
G01X154730Y-124475D02*
X149770D01*
G01X164650Y-116350D02*
Y-128850D01*
G01X161085Y-116350D02*
X168215D01*
G01X180150Y-128850D02*
X173950D01*
Y-116350D01*
X180150D01*
G01X177670Y-122392D02*
X173950D01*
G01X186040Y-128850D02*
Y-116350D01*
X189140D01*
X190380Y-116975D01*
X191310Y-117808D01*
X192085Y-119058D01*
X192705Y-120517D01*
X192860Y-122600D01*
X192705Y-124683D01*
X192085Y-126142D01*
X191310Y-127392D01*
X190380Y-128225D01*
X189140Y-128850D01*
X186040D01*
G01X132625Y-17500D02*
X157480D01*
G01Y-10000D02*
Y-27500D01*
G01X167480Y0D02*
X195000D01*
G01X142480Y-20000D02*
X157480Y-17500D01*
X142480Y-15000D01*
Y-20000D01*
G01X166400Y73750D02*
Y86250D01*
X164540Y83750D01*
G01Y73750D02*
X168260D01*
G01X178800Y73333D02*
X178490Y73542D01*
Y73958D01*
X178800Y74167D01*
X179110Y73958D01*
Y73542D01*
X178800Y73333D01*
G01X187790Y75625D02*
X188720Y74583D01*
X189805Y73958D01*
X191200Y73750D01*
X192595Y74167D01*
X193680Y75000D01*
X194455Y76458D01*
X194610Y78125D01*
X194300Y79792D01*
X193525Y80833D01*
X192440Y81667D01*
X191355Y81875D01*
X190270Y81667D01*
X188875Y80833D01*
X189340Y86250D01*
X193525D01*
G01X203290Y73750D02*
X203600Y76458D01*
X204065Y78750D01*
X204685Y80833D01*
X205460Y83125D01*
X206700Y86250D01*
X200500D01*
G01X167480Y157480D02*
X195000D01*
G01X157480Y167480D02*
Y187500D01*
G01X142480Y175000D02*
X157480Y177500D01*
X142480Y180000D01*
Y175000D01*
G01X185000Y64375D02*
Y0D01*
G01X182500Y15000D02*
X185000Y0D01*
X187500Y15000D01*
X182500D01*
G01X185000Y95625D02*
Y157480D01*
G01X187500Y142480D02*
X185000Y157480D01*
X182500Y142480D01*
X187500D01*
G01X222000Y-110100D02*
Y-166300D01*
G01X227350Y-29400D02*
Y167624D01*
X287350D01*
Y-29400D01*
X227350D01*
G01X254550Y-158500D02*
Y-146000D01*
X252690Y-148500D01*
G01Y-158500D02*
X256410D01*
G01X266950Y-146000D02*
X265710Y-146417D01*
X264780Y-147458D01*
X264160Y-148708D01*
X263695Y-150375D01*
X263540Y-152250D01*
X263695Y-154125D01*
X264160Y-155792D01*
X264780Y-157042D01*
X265710Y-158083D01*
X266950Y-158500D01*
X268190Y-158083D01*
X269120Y-157042D01*
X269740Y-155792D01*
X270205Y-154125D01*
X270360Y-152250D01*
X270205Y-150375D01*
X269740Y-148708D01*
X269120Y-147458D01*
X268190Y-146417D01*
X266950Y-146000D01*
G01X248350Y-128850D02*
X247110Y-128642D01*
X246025Y-127809D01*
X245095Y-126558D01*
X244475Y-125100D01*
X244165Y-123433D01*
Y-121767D01*
X244475Y-120100D01*
X245095Y-118642D01*
X246025Y-117392D01*
X247110Y-116558D01*
X248350Y-116350D01*
X249590Y-116558D01*
X250675Y-117392D01*
X251605Y-118642D01*
X252225Y-120100D01*
X252535Y-121767D01*
Y-123433D01*
X252225Y-125100D01*
X251605Y-126558D01*
X250675Y-127809D01*
X249590Y-128642D01*
X248350Y-128850D01*
G01X249590Y-125517D02*
X251450Y-128850D01*
G01X260750Y-116350D02*
Y-128850D01*
G01X257185Y-116350D02*
X264315D01*
G01X273150Y-128850D02*
Y-123225D01*
X270050Y-116350D01*
G01X276250D02*
X273150Y-123225D01*
G01X226150Y-47750D02*
Y-50750D01*
G01X225383Y-47750D02*
X226917D01*
G01X228750Y-50750D02*
X228483Y-50700D01*
X228250Y-50500D01*
X228050Y-50200D01*
X227917Y-49850D01*
X227850Y-49450D01*
Y-49050D01*
X227917Y-48650D01*
X228050Y-48300D01*
X228250Y-48000D01*
X228483Y-47800D01*
X228750Y-47750D01*
X229017Y-47800D01*
X229250Y-48000D01*
X229450Y-48300D01*
X229583Y-48650D01*
X229650Y-49050D01*
Y-49450D01*
X229583Y-49850D01*
X229450Y-50200D01*
X229250Y-50500D01*
X229017Y-50700D01*
X228750Y-50750D01*
G01X231350Y-47750D02*
Y-50750D01*
G01X230583Y-47750D02*
X232117D01*
G01X233117Y-50750D02*
X233950Y-47750D01*
X234783Y-50750D01*
G01X234483Y-49700D02*
X233417D01*
G01X235883Y-47750D02*
Y-50750D01*
X237217D01*
G01X241750Y-47750D02*
Y-50750D01*
G01X240983Y-47750D02*
X242517D01*
G01X243650Y-50750D02*
Y-47750D01*
G01X245050D02*
Y-50750D01*
G01Y-49250D02*
X243650D01*
G01X246550Y-47750D02*
X247350D01*
G01X246950D02*
Y-50750D01*
G01X246550D02*
X247350D01*
G01X250283Y-48000D02*
X250083Y-47850D01*
X249850Y-47750D01*
X249583D01*
X249283Y-47900D01*
X249050Y-48150D01*
X248883Y-48450D01*
X248750Y-48950D01*
X248717Y-49400D01*
X248783Y-49850D01*
X248883Y-50150D01*
X249083Y-50450D01*
X249317Y-50650D01*
X249550Y-50750D01*
X249783D01*
X250017Y-50650D01*
X250217Y-50500D01*
X250383Y-50300D01*
G01X251417Y-50750D02*
Y-47750D01*
G01X252683D02*
X251417Y-49600D01*
G01X252883Y-50750D02*
X251983Y-48750D01*
G01X253983Y-50750D02*
Y-47750D01*
X255517Y-50750D01*
Y-47750D01*
G01X258017Y-50750D02*
X256683D01*
Y-47750D01*
X258017D01*
G01X257483Y-49200D02*
X256683D01*
G01X259250Y-50350D02*
X259517Y-50600D01*
X259817Y-50750D01*
X260083D01*
X260350Y-50600D01*
X260550Y-50350D01*
X260650Y-50000D01*
X260583Y-49650D01*
X260417Y-49350D01*
X260117Y-49150D01*
X259717Y-49050D01*
X259483Y-48850D01*
X259383Y-48500D01*
X259450Y-48150D01*
X259617Y-47900D01*
X259850Y-47750D01*
X260083D01*
X260317Y-47850D01*
X260517Y-48100D01*
G01X261850Y-50350D02*
X262117Y-50600D01*
X262417Y-50750D01*
X262683D01*
X262950Y-50600D01*
X263150Y-50350D01*
X263250Y-50000D01*
X263183Y-49650D01*
X263017Y-49350D01*
X262717Y-49150D01*
X262317Y-49050D01*
X262083Y-48850D01*
X261983Y-48500D01*
X262050Y-48150D01*
X262217Y-47900D01*
X262450Y-47750D01*
X262683D01*
X262917Y-47850D01*
X263117Y-48100D01*
G01X267117Y-49500D02*
X267350Y-49150D01*
X267550Y-48950D01*
X267817Y-48850D01*
X268050Y-48950D01*
X268217Y-49150D01*
X268350Y-49450D01*
X268383Y-49800D01*
X268350Y-50100D01*
X268217Y-50400D01*
X268017Y-50650D01*
X267783Y-50750D01*
X267517Y-50650D01*
X267283Y-50350D01*
X267150Y-49900D01*
X267117Y-49400D01*
X267183Y-48750D01*
X267283Y-48400D01*
X267450Y-48050D01*
X267683Y-47800D01*
X267917Y-47750D01*
X268150Y-47850D01*
X268317Y-48100D01*
G01X269717Y-48250D02*
X269917Y-47950D01*
X270150Y-47800D01*
X270417Y-47750D01*
X270750Y-47850D01*
X270983Y-48100D01*
X271050Y-48400D01*
X271017Y-48700D01*
X270883Y-48950D01*
X270217Y-49450D01*
X269917Y-49800D01*
X269717Y-50300D01*
X269650Y-50750D01*
X271050D01*
G01X272950Y-50850D02*
X272883Y-50800D01*
Y-50700D01*
X272950Y-50650D01*
X273017Y-50700D01*
Y-50800D01*
X272950Y-50850D01*
G01X274983Y-50400D02*
X275217Y-50650D01*
X275483Y-50750D01*
X275750Y-50650D01*
X275983Y-50350D01*
X276150Y-49900D01*
X276217Y-49450D01*
Y-48900D01*
X276150Y-48450D01*
X275983Y-48050D01*
X275783Y-47850D01*
X275550Y-47750D01*
X275283Y-47850D01*
X275083Y-48050D01*
X274950Y-48350D01*
X274883Y-48750D01*
X274950Y-49100D01*
X275117Y-49450D01*
X275317Y-49650D01*
X275550Y-49700D01*
X275817Y-49600D01*
X276017Y-49350D01*
X276217Y-48900D01*
G01X277583Y-50400D02*
X277817Y-50650D01*
X278083Y-50750D01*
X278350Y-50650D01*
X278583Y-50350D01*
X278750Y-49900D01*
X278817Y-49450D01*
Y-48900D01*
X278750Y-48450D01*
X278583Y-48050D01*
X278383Y-47850D01*
X278150Y-47750D01*
X277883Y-47850D01*
X277683Y-48050D01*
X277550Y-48350D01*
X277483Y-48750D01*
X277550Y-49100D01*
X277717Y-49450D01*
X277917Y-49650D01*
X278150Y-49700D01*
X278417Y-49600D01*
X278617Y-49350D01*
X278817Y-48900D01*
G01X282483Y-50750D02*
Y-47750D01*
X283350Y-50250D01*
X284217Y-47750D01*
Y-50750D01*
G01X285550Y-47750D02*
X286350D01*
G01X285950D02*
Y-50750D01*
G01X285550D02*
X286350D01*
G01X287883Y-47750D02*
Y-50750D01*
X289217D01*
G01X224117Y-44750D02*
Y-41750D01*
X224783D01*
X225050Y-41900D01*
X225250Y-42100D01*
X225417Y-42400D01*
X225550Y-42750D01*
X225583Y-43250D01*
X225550Y-43750D01*
X225417Y-44100D01*
X225250Y-44400D01*
X225050Y-44600D01*
X224783Y-44750D01*
X224117D01*
G01X228117D02*
X226783D01*
Y-41750D01*
X228117D01*
G01X227583Y-43200D02*
X226783D01*
G01X229350Y-44350D02*
X229617Y-44600D01*
X229917Y-44750D01*
X230183D01*
X230450Y-44600D01*
X230650Y-44350D01*
X230750Y-44000D01*
X230683Y-43650D01*
X230517Y-43350D01*
X230217Y-43150D01*
X229817Y-43050D01*
X229583Y-42850D01*
X229483Y-42500D01*
X229550Y-42150D01*
X229717Y-41900D01*
X229950Y-41750D01*
X230183D01*
X230417Y-41850D01*
X230617Y-42100D01*
G01X232250Y-41750D02*
X233050D01*
G01X232650D02*
Y-44750D01*
G01X232250D02*
X233050D01*
G01X235450Y-43250D02*
X236117D01*
Y-44150D01*
X235917Y-44450D01*
X235683Y-44650D01*
X235350Y-44750D01*
X235017Y-44650D01*
X234783Y-44450D01*
X234583Y-44150D01*
X234450Y-43800D01*
X234383Y-43400D01*
Y-43050D01*
X234450Y-42750D01*
X234583Y-42400D01*
X234783Y-42100D01*
X234983Y-41900D01*
X235250Y-41750D01*
X235483D01*
X235750Y-41850D01*
X235950Y-42050D01*
G01X237083Y-44750D02*
Y-41750D01*
X238617Y-44750D01*
Y-41750D01*
G01X243783Y-42000D02*
X243583Y-41850D01*
X243350Y-41750D01*
X243083D01*
X242783Y-41900D01*
X242550Y-42150D01*
X242383Y-42450D01*
X242250Y-42950D01*
X242217Y-43400D01*
X242283Y-43850D01*
X242383Y-44150D01*
X242583Y-44450D01*
X242817Y-44650D01*
X243050Y-44750D01*
X243283D01*
X243517Y-44650D01*
X243717Y-44500D01*
X243883Y-44300D01*
G01X244983Y-44750D02*
Y-41750D01*
X245817D01*
X246083Y-41900D01*
X246250Y-42100D01*
X246317Y-42500D01*
X246250Y-42900D01*
X246050Y-43150D01*
X245817Y-43300D01*
X244983D01*
G01X245817D02*
X246317Y-44750D01*
G01X248250D02*
X247983Y-44700D01*
X247750Y-44500D01*
X247550Y-44200D01*
X247417Y-43850D01*
X247350Y-43450D01*
Y-43050D01*
X247417Y-42650D01*
X247550Y-42300D01*
X247750Y-42000D01*
X247983Y-41800D01*
X248250Y-41750D01*
X248517Y-41800D01*
X248750Y-42000D01*
X248950Y-42300D01*
X249083Y-42650D01*
X249150Y-43050D01*
Y-43450D01*
X249083Y-43850D01*
X248950Y-44200D01*
X248750Y-44500D01*
X248517Y-44700D01*
X248250Y-44750D01*
G01X250150Y-44350D02*
X250417Y-44600D01*
X250717Y-44750D01*
X250983D01*
X251250Y-44600D01*
X251450Y-44350D01*
X251550Y-44000D01*
X251483Y-43650D01*
X251317Y-43350D01*
X251017Y-43150D01*
X250617Y-43050D01*
X250383Y-42850D01*
X250283Y-42500D01*
X250350Y-42150D01*
X250517Y-41900D01*
X250750Y-41750D01*
X250983D01*
X251217Y-41850D01*
X251417Y-42100D01*
G01X252750Y-44350D02*
X253017Y-44600D01*
X253317Y-44750D01*
X253583D01*
X253850Y-44600D01*
X254050Y-44350D01*
X254150Y-44000D01*
X254083Y-43650D01*
X253917Y-43350D01*
X253617Y-43150D01*
X253217Y-43050D01*
X252983Y-42850D01*
X252883Y-42500D01*
X252950Y-42150D01*
X253117Y-41900D01*
X253350Y-41750D01*
X253583D01*
X253817Y-41850D01*
X254017Y-42100D01*
G01X257950Y-44350D02*
X258217Y-44600D01*
X258517Y-44750D01*
X258783D01*
X259050Y-44600D01*
X259250Y-44350D01*
X259350Y-44000D01*
X259283Y-43650D01*
X259117Y-43350D01*
X258817Y-43150D01*
X258417Y-43050D01*
X258183Y-42850D01*
X258083Y-42500D01*
X258150Y-42150D01*
X258317Y-41900D01*
X258550Y-41750D01*
X258783D01*
X259017Y-41850D01*
X259217Y-42100D01*
G01X261917Y-44750D02*
X260583D01*
Y-41750D01*
X261917D01*
G01X261383Y-43200D02*
X260583D01*
G01X264583Y-42000D02*
X264383Y-41850D01*
X264150Y-41750D01*
X263883D01*
X263583Y-41900D01*
X263350Y-42150D01*
X263183Y-42450D01*
X263050Y-42950D01*
X263017Y-43400D01*
X263083Y-43850D01*
X263183Y-44150D01*
X263383Y-44450D01*
X263617Y-44650D01*
X263850Y-44750D01*
X264083D01*
X264317Y-44650D01*
X264517Y-44500D01*
X264683Y-44300D01*
G01X266450Y-41750D02*
Y-44750D01*
G01X265683Y-41750D02*
X267217D01*
G01X268650D02*
X269450D01*
G01X269050D02*
Y-44750D01*
G01X268650D02*
X269450D01*
G01X271650D02*
X271383Y-44700D01*
X271150Y-44500D01*
X270950Y-44200D01*
X270817Y-43850D01*
X270750Y-43450D01*
Y-43050D01*
X270817Y-42650D01*
X270950Y-42300D01*
X271150Y-42000D01*
X271383Y-41800D01*
X271650Y-41750D01*
X271917Y-41800D01*
X272150Y-42000D01*
X272350Y-42300D01*
X272483Y-42650D01*
X272550Y-43050D01*
Y-43450D01*
X272483Y-43850D01*
X272350Y-44200D01*
X272150Y-44500D01*
X271917Y-44700D01*
X271650Y-44750D01*
G01X273483D02*
Y-41750D01*
X275017Y-44750D01*
Y-41750D01*
G01X280183Y-42000D02*
X279983Y-41850D01*
X279750Y-41750D01*
X279483D01*
X279183Y-41900D01*
X278950Y-42150D01*
X278783Y-42450D01*
X278650Y-42950D01*
X278617Y-43400D01*
X278683Y-43850D01*
X278783Y-44150D01*
X278983Y-44450D01*
X279217Y-44650D01*
X279450Y-44750D01*
X279683D01*
X279917Y-44650D01*
X280117Y-44500D01*
X280283Y-44300D01*
G01X281350Y-44750D02*
Y-41750D01*
G01X282750D02*
Y-44750D01*
G01Y-43250D02*
X281350D01*
G01X283817Y-44750D02*
X284650Y-41750D01*
X285483Y-44750D01*
G01X285183Y-43700D02*
X284117D01*
G01X286583Y-44750D02*
Y-41750D01*
X287417D01*
X287683Y-41900D01*
X287850Y-42100D01*
X287917Y-42500D01*
X287850Y-42900D01*
X287650Y-43150D01*
X287417Y-43300D01*
X286583D01*
G01X287417D02*
X287917Y-44750D01*
G01X289850Y-41750D02*
Y-44750D01*
G01X289083Y-41750D02*
X290617D01*
G01X222550Y-45750D02*
X224550D01*
G01X225150D02*
X227150D01*
G01X227750D02*
X229750D01*
G01X230350D02*
X232350D01*
G01X232950D02*
X234950D01*
G01X235550D02*
X237550D01*
G01X238150D02*
X240150D01*
G01X240750D02*
X242750D01*
G01X243350D02*
X245350D01*
G01X245950D02*
X247950D01*
G01X248550D02*
X250550D01*
G01X251150D02*
X253150D01*
G01X253750D02*
X255750D01*
G01X256350D02*
X258350D01*
G01X258950D02*
X260950D01*
G01X261550D02*
X263550D01*
G01X264150D02*
X266150D01*
G01X266750D02*
X268750D01*
G01X269350D02*
X271350D01*
G01X271950D02*
X273950D01*
G01X274550D02*
X276550D01*
G01X277150D02*
X279150D01*
G01X279750D02*
X281750D01*
G01X282350D02*
X284350D01*
G01X284950D02*
X286950D01*
G01X287550D02*
X289550D01*
G01X290150D02*
X292150D01*
G01X254850Y173896D02*
X251850D01*
X252450Y173496D01*
G01X254850D02*
Y174296D01*
G01X253850Y176063D02*
Y176929D01*
G01X252350Y178463D02*
X252050Y178663D01*
X251900Y178896D01*
X251850Y179163D01*
X251950Y179496D01*
X252200Y179729D01*
X252500Y179796D01*
X252800Y179763D01*
X253050Y179629D01*
X253550Y178963D01*
X253900Y178663D01*
X254400Y178463D01*
X254850Y178396D01*
Y179796D01*
G01X290283Y-30400D02*
Y-33400D01*
X291617D01*
G01X292917Y-30900D02*
X293117Y-30600D01*
X293350Y-30450D01*
X293617Y-30400D01*
X293950Y-30500D01*
X294183Y-30750D01*
X294250Y-31050D01*
X294217Y-31350D01*
X294083Y-31600D01*
X293417Y-32100D01*
X293117Y-32450D01*
X292917Y-32950D01*
X292850Y-33400D01*
X294250D01*
G01X296150Y-33500D02*
X296083Y-33450D01*
Y-33350D01*
X296150Y-33300D01*
X296217Y-33350D01*
Y-33450D01*
X296150Y-33500D01*
G01Y-32150D02*
X296083Y-32100D01*
Y-32000D01*
X296150Y-31950D01*
X296217Y-32000D01*
Y-32100D01*
X296150Y-32150D01*
G01X301617Y-31800D02*
X301750Y-31650D01*
X301850Y-31400D01*
X301917Y-31050D01*
X301850Y-30750D01*
X301717Y-30550D01*
X301483Y-30400D01*
X300583D01*
Y-33400D01*
X301683D01*
X301917Y-33200D01*
X302050Y-32900D01*
X302117Y-32550D01*
X302050Y-32200D01*
X301850Y-31900D01*
X301617Y-31800D01*
X300583D01*
G01X303950Y-33400D02*
X303683Y-33350D01*
X303450Y-33150D01*
X303250Y-32850D01*
X303117Y-32500D01*
X303050Y-32100D01*
Y-31700D01*
X303117Y-31300D01*
X303250Y-30950D01*
X303450Y-30650D01*
X303683Y-30450D01*
X303950Y-30400D01*
X304217Y-30450D01*
X304450Y-30650D01*
X304650Y-30950D01*
X304783Y-31300D01*
X304850Y-31700D01*
Y-32100D01*
X304783Y-32500D01*
X304650Y-32850D01*
X304450Y-33150D01*
X304217Y-33350D01*
X303950Y-33400D01*
G01X306550Y-30400D02*
Y-33400D01*
G01X305783Y-30400D02*
X307317D01*
G01X309150D02*
Y-33400D01*
G01X308383Y-30400D02*
X309917D01*
G01X311750Y-33400D02*
X311483Y-33350D01*
X311250Y-33150D01*
X311050Y-32850D01*
X310917Y-32500D01*
X310850Y-32100D01*
Y-31700D01*
X310917Y-31300D01*
X311050Y-30950D01*
X311250Y-30650D01*
X311483Y-30450D01*
X311750Y-30400D01*
X312017Y-30450D01*
X312250Y-30650D01*
X312450Y-30950D01*
X312583Y-31300D01*
X312650Y-31700D01*
Y-32100D01*
X312583Y-32500D01*
X312450Y-32850D01*
X312250Y-33150D01*
X312017Y-33350D01*
X311750Y-33400D01*
G01X313483D02*
Y-30400D01*
X314350Y-32900D01*
X315217Y-30400D01*
Y-33400D01*
G01X320283Y-30650D02*
X320083Y-30500D01*
X319850Y-30400D01*
X319583D01*
X319283Y-30550D01*
X319050Y-30800D01*
X318883Y-31100D01*
X318750Y-31600D01*
X318717Y-32050D01*
X318783Y-32500D01*
X318883Y-32800D01*
X319083Y-33100D01*
X319317Y-33300D01*
X319550Y-33400D01*
X319783D01*
X320017Y-33300D01*
X320217Y-33150D01*
X320383Y-32950D01*
G01X322150Y-33400D02*
X321883Y-33350D01*
X321650Y-33150D01*
X321450Y-32850D01*
X321317Y-32500D01*
X321250Y-32100D01*
Y-31700D01*
X321317Y-31300D01*
X321450Y-30950D01*
X321650Y-30650D01*
X321883Y-30450D01*
X322150Y-30400D01*
X322417Y-30450D01*
X322650Y-30650D01*
X322850Y-30950D01*
X322983Y-31300D01*
X323050Y-31700D01*
Y-32100D01*
X322983Y-32500D01*
X322850Y-32850D01*
X322650Y-33150D01*
X322417Y-33350D01*
X322150Y-33400D01*
G01X323983D02*
Y-30400D01*
X325517Y-33400D01*
Y-30400D01*
G01X326617Y-33400D02*
Y-30400D01*
X327283D01*
X327550Y-30550D01*
X327750Y-30750D01*
X327917Y-31050D01*
X328050Y-31400D01*
X328083Y-31900D01*
X328050Y-32400D01*
X327917Y-32750D01*
X327750Y-33050D01*
X327550Y-33250D01*
X327283Y-33400D01*
X326617D01*
G01X329217Y-30400D02*
Y-32550D01*
X329350Y-33000D01*
X329617Y-33300D01*
X329950Y-33400D01*
X330283Y-33300D01*
X330550Y-33000D01*
X330683Y-32550D01*
Y-30400D01*
G01X333283Y-30650D02*
X333083Y-30500D01*
X332850Y-30400D01*
X332583D01*
X332283Y-30550D01*
X332050Y-30800D01*
X331883Y-31100D01*
X331750Y-31600D01*
X331717Y-32050D01*
X331783Y-32500D01*
X331883Y-32800D01*
X332083Y-33100D01*
X332317Y-33300D01*
X332550Y-33400D01*
X332783D01*
X333017Y-33300D01*
X333217Y-33150D01*
X333383Y-32950D01*
G01X335150Y-30400D02*
Y-33400D01*
G01X334383Y-30400D02*
X335917D01*
G01X337750Y-33400D02*
X337483Y-33350D01*
X337250Y-33150D01*
X337050Y-32850D01*
X336917Y-32500D01*
X336850Y-32100D01*
Y-31700D01*
X336917Y-31300D01*
X337050Y-30950D01*
X337250Y-30650D01*
X337483Y-30450D01*
X337750Y-30400D01*
X338017Y-30450D01*
X338250Y-30650D01*
X338450Y-30950D01*
X338583Y-31300D01*
X338650Y-31700D01*
Y-32100D01*
X338583Y-32500D01*
X338450Y-32850D01*
X338250Y-33150D01*
X338017Y-33350D01*
X337750Y-33400D01*
G01X339683D02*
Y-30400D01*
X340517D01*
X340783Y-30550D01*
X340950Y-30750D01*
X341017Y-31150D01*
X340950Y-31550D01*
X340750Y-31800D01*
X340517Y-31950D01*
X339683D01*
G01X340517D02*
X341017Y-33400D01*
G01X345117Y-32400D02*
X345983D01*
G01X351483Y-30650D02*
X351283Y-30500D01*
X351050Y-30400D01*
X350783D01*
X350483Y-30550D01*
X350250Y-30800D01*
X350083Y-31100D01*
X349950Y-31600D01*
X349917Y-32050D01*
X349983Y-32500D01*
X350083Y-32800D01*
X350283Y-33100D01*
X350517Y-33300D01*
X350750Y-33400D01*
X350983D01*
X351217Y-33300D01*
X351417Y-33150D01*
X351583Y-32950D01*
G01X353350Y-33400D02*
X353083Y-33350D01*
X352850Y-33150D01*
X352650Y-32850D01*
X352517Y-32500D01*
X352450Y-32100D01*
Y-31700D01*
X352517Y-31300D01*
X352650Y-30950D01*
X352850Y-30650D01*
X353083Y-30450D01*
X353350Y-30400D01*
X353617Y-30450D01*
X353850Y-30650D01*
X354050Y-30950D01*
X354183Y-31300D01*
X354250Y-31700D01*
Y-32100D01*
X354183Y-32500D01*
X354050Y-32850D01*
X353850Y-33150D01*
X353617Y-33350D01*
X353350Y-33400D01*
G01X355283D02*
Y-30400D01*
X356083D01*
X356350Y-30550D01*
X356550Y-30900D01*
X356617Y-31300D01*
X356550Y-31700D01*
X356383Y-32000D01*
X356083Y-32150D01*
X355283D01*
G01X357883Y-33400D02*
Y-30400D01*
X358683D01*
X358950Y-30550D01*
X359150Y-30900D01*
X359217Y-31300D01*
X359150Y-31700D01*
X358983Y-32000D01*
X358683Y-32150D01*
X357883D01*
G01X361817Y-33400D02*
X360483D01*
Y-30400D01*
X361817D01*
G01X361283Y-31850D02*
X360483D01*
G01X363083Y-33400D02*
Y-30400D01*
X363917D01*
X364183Y-30550D01*
X364350Y-30750D01*
X364417Y-31150D01*
X364350Y-31550D01*
X364150Y-31800D01*
X363917Y-31950D01*
X363083D01*
G01X363917D02*
X364417Y-33400D01*
G01X368950Y-30400D02*
X368683Y-30500D01*
X368483Y-30750D01*
X368350Y-31050D01*
X368250Y-31450D01*
X368217Y-31900D01*
X368250Y-32350D01*
X368350Y-32750D01*
X368483Y-33050D01*
X368683Y-33300D01*
X368950Y-33400D01*
X369217Y-33300D01*
X369417Y-33050D01*
X369550Y-32750D01*
X369650Y-32350D01*
X369683Y-31900D01*
X369650Y-31450D01*
X369550Y-31050D01*
X369417Y-30750D01*
X369217Y-30500D01*
X368950Y-30400D01*
G01X371550Y-33500D02*
X371483Y-33450D01*
Y-33350D01*
X371550Y-33300D01*
X371617Y-33350D01*
Y-33450D01*
X371550Y-33500D01*
G01X374083Y-33400D02*
X374150Y-32750D01*
X374250Y-32200D01*
X374383Y-31700D01*
X374550Y-31150D01*
X374817Y-30400D01*
X373483D01*
G01X376750Y-33400D02*
Y-30400D01*
X376350Y-31000D01*
G01Y-33400D02*
X377150D01*
G01X381083D02*
Y-30400D01*
X381950Y-32900D01*
X382817Y-30400D01*
Y-33400D01*
G01X384150Y-30400D02*
X384950D01*
G01X384550D02*
Y-33400D01*
G01X384150D02*
X384950D01*
G01X386483Y-30400D02*
Y-33400D01*
X387817D01*
G01X295417Y-37500D02*
X296883Y-35300D01*
G01X296150Y-34900D02*
Y-37900D01*
G01X296883Y-37500D02*
X295417Y-35300D01*
G01X295150Y-36400D02*
X297150D01*
G01X303250Y-37000D02*
X303517Y-37250D01*
X303817Y-37400D01*
X304083D01*
X304350Y-37250D01*
X304550Y-37000D01*
X304650Y-36650D01*
X304583Y-36300D01*
X304417Y-36000D01*
X304117Y-35800D01*
X303717Y-35700D01*
X303483Y-35500D01*
X303383Y-35150D01*
X303450Y-34800D01*
X303617Y-34550D01*
X303850Y-34400D01*
X304083D01*
X304317Y-34500D01*
X304517Y-34750D01*
G01X305817Y-34400D02*
Y-36550D01*
X305950Y-37000D01*
X306217Y-37300D01*
X306550Y-37400D01*
X306883Y-37300D01*
X307150Y-37000D01*
X307283Y-36550D01*
Y-34400D01*
G01X308483Y-37400D02*
Y-34400D01*
X309317D01*
X309583Y-34550D01*
X309750Y-34750D01*
X309817Y-35150D01*
X309750Y-35550D01*
X309550Y-35800D01*
X309317Y-35950D01*
X308483D01*
G01X309317D02*
X309817Y-37400D01*
G01X311117D02*
Y-34400D01*
X312383D01*
G01X311917Y-35850D02*
X311117D01*
G01X313517Y-37400D02*
X314350Y-34400D01*
X315183Y-37400D01*
G01X314883Y-36350D02*
X313817D01*
G01X317683Y-34650D02*
X317483Y-34500D01*
X317250Y-34400D01*
X316983D01*
X316683Y-34550D01*
X316450Y-34800D01*
X316283Y-35100D01*
X316150Y-35600D01*
X316117Y-36050D01*
X316183Y-36500D01*
X316283Y-36800D01*
X316483Y-37100D01*
X316717Y-37300D01*
X316950Y-37400D01*
X317183D01*
X317417Y-37300D01*
X317617Y-37150D01*
X317783Y-36950D01*
G01X320217Y-37400D02*
X318883D01*
Y-34400D01*
X320217D01*
G01X319683Y-35850D02*
X318883D01*
G01X324317Y-36400D02*
X325183D01*
G01X329117Y-37400D02*
X329950Y-34400D01*
X330783Y-37400D01*
G01X330483Y-36350D02*
X329417D01*
G01X332150Y-34400D02*
X332950D01*
G01X332550D02*
Y-37400D01*
G01X332150D02*
X332950D01*
G01X334483D02*
Y-34400D01*
X335317D01*
X335583Y-34550D01*
X335750Y-34750D01*
X335817Y-35150D01*
X335750Y-35550D01*
X335550Y-35800D01*
X335317Y-35950D01*
X334483D01*
G01X335317D02*
X335817Y-37400D01*
G01X340350Y-34400D02*
X340083Y-34500D01*
X339883Y-34750D01*
X339750Y-35050D01*
X339650Y-35450D01*
X339617Y-35900D01*
X339650Y-36350D01*
X339750Y-36750D01*
X339883Y-37050D01*
X340083Y-37300D01*
X340350Y-37400D01*
X340617Y-37300D01*
X340817Y-37050D01*
X340950Y-36750D01*
X341050Y-36350D01*
X341083Y-35900D01*
X341050Y-35450D01*
X340950Y-35050D01*
X340817Y-34750D01*
X340617Y-34500D01*
X340350Y-34400D01*
G01X344683Y-37400D02*
Y-34400D01*
X345550Y-36900D01*
X346417Y-34400D01*
Y-37400D01*
G01X347750Y-34400D02*
X348550D01*
G01X348150D02*
Y-37400D01*
G01X347750D02*
X348550D01*
G01X350083Y-34400D02*
Y-37400D01*
X351417D01*
G01X295417Y69012D02*
X296883Y71212D01*
G01X296150Y71612D02*
Y68612D01*
G01X296883Y69012D02*
X295417Y71212D01*
G01X295150Y70112D02*
X297150D01*
G01X303217Y69112D02*
Y72112D01*
X303883D01*
X304150Y71962D01*
X304350Y71762D01*
X304517Y71462D01*
X304650Y71112D01*
X304683Y70612D01*
X304650Y70112D01*
X304517Y69762D01*
X304350Y69462D01*
X304150Y69262D01*
X303883Y69112D01*
X303217D01*
G01X306150Y72112D02*
X306950D01*
G01X306550D02*
Y69112D01*
G01X306150D02*
X306950D01*
G01X309817D02*
X308483D01*
Y72112D01*
X309817D01*
G01X309283Y70662D02*
X308483D01*
G01X311083Y72112D02*
Y69112D01*
X312417D01*
G01X315017D02*
X313683D01*
Y72112D01*
X315017D01*
G01X314483Y70662D02*
X313683D01*
G01X317683Y71862D02*
X317483Y72012D01*
X317250Y72112D01*
X316983D01*
X316683Y71962D01*
X316450Y71712D01*
X316283Y71412D01*
X316150Y70912D01*
X316117Y70462D01*
X316183Y70012D01*
X316283Y69712D01*
X316483Y69412D01*
X316717Y69212D01*
X316950Y69112D01*
X317183D01*
X317417Y69212D01*
X317617Y69362D01*
X317783Y69562D01*
G01X319550Y72112D02*
Y69112D01*
G01X318783Y72112D02*
X320317D01*
G01X321483Y69112D02*
Y72112D01*
X322317D01*
X322583Y71962D01*
X322750Y71762D01*
X322817Y71362D01*
X322750Y70962D01*
X322550Y70712D01*
X322317Y70562D01*
X321483D01*
G01X322317D02*
X322817Y69112D01*
G01X324350Y72112D02*
X325150D01*
G01X324750D02*
Y69112D01*
G01X324350D02*
X325150D01*
G01X328083Y71862D02*
X327883Y72012D01*
X327650Y72112D01*
X327383D01*
X327083Y71962D01*
X326850Y71712D01*
X326683Y71412D01*
X326550Y70912D01*
X326517Y70462D01*
X326583Y70012D01*
X326683Y69712D01*
X326883Y69412D01*
X327117Y69212D01*
X327350Y69112D01*
X327583D01*
X327817Y69212D01*
X328017Y69362D01*
X328183Y69562D01*
G01X332117Y70112D02*
X332983D01*
G01X337117Y69112D02*
Y72112D01*
X338383D01*
G01X337917Y70662D02*
X337117D01*
G01X339683Y69112D02*
Y72112D01*
X340517D01*
X340783Y71962D01*
X340950Y71762D01*
X341017Y71362D01*
X340950Y70962D01*
X340750Y70712D01*
X340517Y70562D01*
X339683D01*
G01X340517D02*
X341017Y69112D01*
G01X342517Y70112D02*
X343383D01*
G01X345950Y69112D02*
Y72112D01*
X344717Y69962D01*
X346383D01*
G01X350117Y70362D02*
X350350Y70712D01*
X350550Y70912D01*
X350817Y71012D01*
X351050Y70912D01*
X351217Y70712D01*
X351350Y70412D01*
X351383Y70062D01*
X351350Y69762D01*
X351217Y69462D01*
X351017Y69212D01*
X350783Y69112D01*
X350517Y69212D01*
X350283Y69512D01*
X350150Y69962D01*
X350117Y70462D01*
X350183Y71112D01*
X350283Y71462D01*
X350450Y71812D01*
X350683Y72062D01*
X350917Y72112D01*
X351150Y72012D01*
X351317Y71762D01*
G01X353350Y69112D02*
Y72112D01*
X352950Y71512D01*
G01Y69112D02*
X353750D01*
G01X355950Y69012D02*
X355883Y69062D01*
Y69162D01*
X355950Y69212D01*
X356017Y69162D01*
Y69062D01*
X355950Y69012D01*
G01X357817Y69562D02*
X358017Y69312D01*
X358250Y69162D01*
X358550Y69112D01*
X358850Y69212D01*
X359083Y69412D01*
X359250Y69762D01*
X359283Y70162D01*
X359217Y70562D01*
X359050Y70812D01*
X358817Y71012D01*
X358583Y71062D01*
X358350Y71012D01*
X358050Y70812D01*
X358150Y72112D01*
X359050D01*
G01X361083Y69112D02*
X361150Y69762D01*
X361250Y70312D01*
X361383Y70812D01*
X361550Y71362D01*
X361817Y72112D01*
X360483D01*
G01X365483Y69112D02*
Y72112D01*
X366350Y69612D01*
X367217Y72112D01*
Y69112D01*
G01X368550Y72112D02*
X369350D01*
G01X368950D02*
Y69112D01*
G01X368550D02*
X369350D01*
G01X370883Y72112D02*
Y69112D01*
X372217D01*
G01X295417Y170796D02*
X296883Y172996D01*
G01X296150Y173396D02*
Y170396D01*
G01X296883Y170796D02*
X295417Y172996D01*
G01X295150Y171896D02*
X297150D01*
G01X303250Y171296D02*
X303517Y171046D01*
X303817Y170896D01*
X304083D01*
X304350Y171046D01*
X304550Y171296D01*
X304650Y171646D01*
X304583Y171996D01*
X304417Y172296D01*
X304117Y172496D01*
X303717Y172596D01*
X303483Y172796D01*
X303383Y173146D01*
X303450Y173496D01*
X303617Y173746D01*
X303850Y173896D01*
X304083D01*
X304317Y173796D01*
X304517Y173546D01*
G01X305817Y173896D02*
Y171746D01*
X305950Y171296D01*
X306217Y170996D01*
X306550Y170896D01*
X306883Y170996D01*
X307150Y171296D01*
X307283Y171746D01*
Y173896D01*
G01X308483Y170896D02*
Y173896D01*
X309317D01*
X309583Y173746D01*
X309750Y173546D01*
X309817Y173146D01*
X309750Y172746D01*
X309550Y172496D01*
X309317Y172346D01*
X308483D01*
G01X309317D02*
X309817Y170896D01*
G01X311117D02*
Y173896D01*
X312383D01*
G01X311917Y172446D02*
X311117D01*
G01X313517Y170896D02*
X314350Y173896D01*
X315183Y170896D01*
G01X314883Y171946D02*
X313817D01*
G01X317683Y173646D02*
X317483Y173796D01*
X317250Y173896D01*
X316983D01*
X316683Y173746D01*
X316450Y173496D01*
X316283Y173196D01*
X316150Y172696D01*
X316117Y172246D01*
X316183Y171796D01*
X316283Y171496D01*
X316483Y171196D01*
X316717Y170996D01*
X316950Y170896D01*
X317183D01*
X317417Y170996D01*
X317617Y171146D01*
X317783Y171346D01*
G01X320217Y170896D02*
X318883D01*
Y173896D01*
X320217D01*
G01X319683Y172446D02*
X318883D01*
G01X324317Y171896D02*
X325183D01*
G01X329117Y170896D02*
X329950Y173896D01*
X330783Y170896D01*
G01X330483Y171946D02*
X329417D01*
G01X332150Y173896D02*
X332950D01*
G01X332550D02*
Y170896D01*
G01X332150D02*
X332950D01*
G01X334483D02*
Y173896D01*
X335317D01*
X335583Y173746D01*
X335750Y173546D01*
X335817Y173146D01*
X335750Y172746D01*
X335550Y172496D01*
X335317Y172346D01*
X334483D01*
G01X335317D02*
X335817Y170896D01*
G01X340350Y173896D02*
X340083Y173796D01*
X339883Y173546D01*
X339750Y173246D01*
X339650Y172846D01*
X339617Y172396D01*
X339650Y171946D01*
X339750Y171546D01*
X339883Y171246D01*
X340083Y170996D01*
X340350Y170896D01*
X340617Y170996D01*
X340817Y171246D01*
X340950Y171546D01*
X341050Y171946D01*
X341083Y172396D01*
X341050Y172846D01*
X340950Y173246D01*
X340817Y173546D01*
X340617Y173796D01*
X340350Y173896D01*
G01X344683Y170896D02*
Y173896D01*
X345550Y171396D01*
X346417Y173896D01*
Y170896D01*
G01X347750Y173896D02*
X348550D01*
G01X348150D02*
Y170896D01*
G01X347750D02*
X348550D01*
G01X350083Y173896D02*
Y170896D01*
X351417D01*
G01X290283Y168896D02*
Y165896D01*
X291617D01*
G01X293550D02*
Y168896D01*
X293150Y168296D01*
G01Y165896D02*
X293950D01*
G01X296150Y165796D02*
X296083Y165846D01*
Y165946D01*
X296150Y165996D01*
X296217Y165946D01*
Y165846D01*
X296150Y165796D01*
G01Y167146D02*
X296083Y167196D01*
Y167296D01*
X296150Y167346D01*
X296217Y167296D01*
Y167196D01*
X296150Y167146D01*
G01X301350Y168896D02*
Y165896D01*
G01X300583Y168896D02*
X302117D01*
G01X303950Y165896D02*
X303683Y165946D01*
X303450Y166146D01*
X303250Y166446D01*
X303117Y166796D01*
X303050Y167196D01*
Y167596D01*
X303117Y167996D01*
X303250Y168346D01*
X303450Y168646D01*
X303683Y168846D01*
X303950Y168896D01*
X304217Y168846D01*
X304450Y168646D01*
X304650Y168346D01*
X304783Y167996D01*
X304850Y167596D01*
Y167196D01*
X304783Y166796D01*
X304650Y166446D01*
X304450Y166146D01*
X304217Y165946D01*
X303950Y165896D01*
G01X305883D02*
Y168896D01*
X306683D01*
X306950Y168746D01*
X307150Y168396D01*
X307217Y167996D01*
X307150Y167596D01*
X306983Y167296D01*
X306683Y167146D01*
X305883D01*
G01X312483Y168646D02*
X312283Y168796D01*
X312050Y168896D01*
X311783D01*
X311483Y168746D01*
X311250Y168496D01*
X311083Y168196D01*
X310950Y167696D01*
X310917Y167246D01*
X310983Y166796D01*
X311083Y166496D01*
X311283Y166196D01*
X311517Y165996D01*
X311750Y165896D01*
X311983D01*
X312217Y165996D01*
X312417Y166146D01*
X312583Y166346D01*
G01X314350Y165896D02*
X314083Y165946D01*
X313850Y166146D01*
X313650Y166446D01*
X313517Y166796D01*
X313450Y167196D01*
Y167596D01*
X313517Y167996D01*
X313650Y168346D01*
X313850Y168646D01*
X314083Y168846D01*
X314350Y168896D01*
X314617Y168846D01*
X314850Y168646D01*
X315050Y168346D01*
X315183Y167996D01*
X315250Y167596D01*
Y167196D01*
X315183Y166796D01*
X315050Y166446D01*
X314850Y166146D01*
X314617Y165946D01*
X314350Y165896D01*
G01X316183D02*
Y168896D01*
X317717Y165896D01*
Y168896D01*
G01X318817Y165896D02*
Y168896D01*
X319483D01*
X319750Y168746D01*
X319950Y168546D01*
X320117Y168246D01*
X320250Y167896D01*
X320283Y167396D01*
X320250Y166896D01*
X320117Y166546D01*
X319950Y166246D01*
X319750Y166046D01*
X319483Y165896D01*
X318817D01*
G01X321417Y168896D02*
Y166746D01*
X321550Y166296D01*
X321817Y165996D01*
X322150Y165896D01*
X322483Y165996D01*
X322750Y166296D01*
X322883Y166746D01*
Y168896D01*
G01X325483Y168646D02*
X325283Y168796D01*
X325050Y168896D01*
X324783D01*
X324483Y168746D01*
X324250Y168496D01*
X324083Y168196D01*
X323950Y167696D01*
X323917Y167246D01*
X323983Y166796D01*
X324083Y166496D01*
X324283Y166196D01*
X324517Y165996D01*
X324750Y165896D01*
X324983D01*
X325217Y165996D01*
X325417Y166146D01*
X325583Y166346D01*
G01X327350Y168896D02*
Y165896D01*
G01X326583Y168896D02*
X328117D01*
G01X329950Y165896D02*
X329683Y165946D01*
X329450Y166146D01*
X329250Y166446D01*
X329117Y166796D01*
X329050Y167196D01*
Y167596D01*
X329117Y167996D01*
X329250Y168346D01*
X329450Y168646D01*
X329683Y168846D01*
X329950Y168896D01*
X330217Y168846D01*
X330450Y168646D01*
X330650Y168346D01*
X330783Y167996D01*
X330850Y167596D01*
Y167196D01*
X330783Y166796D01*
X330650Y166446D01*
X330450Y166146D01*
X330217Y165946D01*
X329950Y165896D01*
G01X331883D02*
Y168896D01*
X332717D01*
X332983Y168746D01*
X333150Y168546D01*
X333217Y168146D01*
X333150Y167746D01*
X332950Y167496D01*
X332717Y167346D01*
X331883D01*
G01X332717D02*
X333217Y165896D01*
G01X337317Y166896D02*
X338183D01*
G01X343683Y168646D02*
X343483Y168796D01*
X343250Y168896D01*
X342983D01*
X342683Y168746D01*
X342450Y168496D01*
X342283Y168196D01*
X342150Y167696D01*
X342117Y167246D01*
X342183Y166796D01*
X342283Y166496D01*
X342483Y166196D01*
X342717Y165996D01*
X342950Y165896D01*
X343183D01*
X343417Y165996D01*
X343617Y166146D01*
X343783Y166346D01*
G01X345550Y165896D02*
X345283Y165946D01*
X345050Y166146D01*
X344850Y166446D01*
X344717Y166796D01*
X344650Y167196D01*
Y167596D01*
X344717Y167996D01*
X344850Y168346D01*
X345050Y168646D01*
X345283Y168846D01*
X345550Y168896D01*
X345817Y168846D01*
X346050Y168646D01*
X346250Y168346D01*
X346383Y167996D01*
X346450Y167596D01*
Y167196D01*
X346383Y166796D01*
X346250Y166446D01*
X346050Y166146D01*
X345817Y165946D01*
X345550Y165896D01*
G01X347483D02*
Y168896D01*
X348283D01*
X348550Y168746D01*
X348750Y168396D01*
X348817Y167996D01*
X348750Y167596D01*
X348583Y167296D01*
X348283Y167146D01*
X347483D01*
G01X350083Y165896D02*
Y168896D01*
X350883D01*
X351150Y168746D01*
X351350Y168396D01*
X351417Y167996D01*
X351350Y167596D01*
X351183Y167296D01*
X350883Y167146D01*
X350083D01*
G01X354017Y165896D02*
X352683D01*
Y168896D01*
X354017D01*
G01X353483Y167446D02*
X352683D01*
G01X355283Y165896D02*
Y168896D01*
X356117D01*
X356383Y168746D01*
X356550Y168546D01*
X356617Y168146D01*
X356550Y167746D01*
X356350Y167496D01*
X356117Y167346D01*
X355283D01*
G01X356117D02*
X356617Y165896D01*
G01X361150Y168896D02*
X360883Y168796D01*
X360683Y168546D01*
X360550Y168246D01*
X360450Y167846D01*
X360417Y167396D01*
X360450Y166946D01*
X360550Y166546D01*
X360683Y166246D01*
X360883Y165996D01*
X361150Y165896D01*
X361417Y165996D01*
X361617Y166246D01*
X361750Y166546D01*
X361850Y166946D01*
X361883Y167396D01*
X361850Y167846D01*
X361750Y168246D01*
X361617Y168546D01*
X361417Y168796D01*
X361150Y168896D01*
G01X363750Y165796D02*
X363683Y165846D01*
Y165946D01*
X363750Y165996D01*
X363817Y165946D01*
Y165846D01*
X363750Y165796D01*
G01X366283Y165896D02*
X366350Y166546D01*
X366450Y167096D01*
X366583Y167596D01*
X366750Y168146D01*
X367017Y168896D01*
X365683D01*
G01X368950Y165896D02*
Y168896D01*
X368550Y168296D01*
G01Y165896D02*
X369350D01*
G01X373283D02*
Y168896D01*
X374150Y166396D01*
X375017Y168896D01*
Y165896D01*
G01X376350Y168896D02*
X377150D01*
G01X376750D02*
Y165896D01*
G01X376350D02*
X377150D01*
G01X378683Y168896D02*
Y165896D01*
X380017D01*
M02*
