G04 ================== begin FILE IDENTIFICATION RECORD ==================*
G04 Layout Name:  LAYOUT.brd*
G04 Film Name:    SPTOP*
G04 File Format:  Gerber RS274X*
G04 File Origin:  Cadence Allegro 16.6-P004*
G04 Origin Date:  Sat Dec 06 09:43:16 2025*
G04 *
G04 Layer:  VIA CLASS/PASTEMASK_TOP*
G04 Layer:  PIN/PASTEMASK_TOP*
G04 Layer:  DRC ERROR CLASS/PASTEMASK_TOP*
G04 *
G04 Offset:    (0.00 0.00)*
G04 Mirror:    No*
G04 Mode:      Positive*
G04 Rotation:  0*
G04 FullContactRelief:  No*
G04 UndefLineWidth:     7.00*
G04 ================== end FILE IDENTIFICATION RECORD ====================*
%FSLAX25Y25*MOIN*%
%IR0*IPPOS*OFA0.00000B0.00000*MIA0B0*SFA1.00000B1.00000*%
%ADD13R,.108X.072*%
%ADD18R,.056X.107*%
%ADD16R,.072X.108*%
%ADD10C,.036*%
%ADD11R,.045X.045*%
%ADD17R,.206X.222*%
%ADD12R,.033X.045*%
%ADD15R,.045X.033*%
%ADD14R,.044X.069*%
%LPD*%
G75*
G54D10*
X20000Y20000D03*
X137500Y137500D03*
G54D11*
X17000Y40900D03*
Y28700D03*
X16300Y132500D03*
Y140900D03*
X25400Y40900D03*
Y28700D03*
X41800Y17000D03*
X33400D03*
X34800Y69000D03*
X46600Y68900D03*
X34800Y91800D03*
Y100200D03*
X46600Y91800D03*
Y100200D03*
X34800Y77400D03*
X46600Y77300D03*
X51000Y131900D03*
Y140300D03*
X65100Y26700D03*
Y18300D03*
X82000Y33900D03*
Y42300D03*
X111300Y19500D03*
Y27900D03*
X101400Y132100D03*
Y140500D03*
X126800Y27900D03*
Y19500D03*
X139800D03*
Y27900D03*
X125800Y62500D03*
Y70900D03*
X128100Y98300D03*
Y89900D03*
X144400Y127400D03*
Y119000D03*
G54D12*
X17000Y53400D03*
X20800Y61400D03*
X24700Y53400D03*
X50500Y55800D03*
X42800D03*
X46700Y47800D03*
X71500Y55800D03*
X63800D03*
X67700Y47800D03*
X137800Y70900D03*
X141700Y62900D03*
X117200Y132500D03*
X121000Y140500D03*
X113300D03*
X145500Y70900D03*
G54D13*
X14400Y90400D03*
Y80400D03*
X144100Y89900D03*
Y99900D03*
G54D14*
X22900Y118400D03*
X43100D03*
X51000D03*
X30800D03*
X109300Y119000D03*
X101400D03*
X129600D03*
X121700D03*
G54D15*
X41600Y37300D03*
Y29600D03*
X49600Y33500D03*
X36600Y132600D03*
Y140300D03*
X28600Y136400D03*
X133800Y41000D03*
Y48700D03*
X125800Y44800D03*
X140900Y48700D03*
X148900Y44900D03*
Y52600D03*
G54D16*
X80200Y15200D03*
Y143100D03*
X70200D03*
X90200Y15200D03*
G54D17*
X72976Y106607D03*
X104424Y49993D03*
G54D18*
X81992Y78300D03*
X64000D03*
X95408D03*
X113400D03*
M02*
