G04 ================== begin FILE IDENTIFICATION RECORD ==================*
G04 Layout Name:  LAYOUT.brd*
G04 Film Name:    SSTOP*
G04 File Format:  Gerber RS274X*
G04 File Origin:  Cadence Allegro 16.6-P004*
G04 Origin Date:  Sat Dec 06 09:43:16 2025*
G04 *
G04 Layer:  REF DES/SILKSCREEN_TOP*
G04 Layer:  PACKAGE GEOMETRY/SILKSCREEN_TOP*
G04 Layer:  BOARD GEOMETRY/SILKSCREEN_TOP*
G04 *
G04 Offset:    (0.00 0.00)*
G04 Mirror:    No*
G04 Mode:      Positive*
G04 Rotation:  0*
G04 FullContactRelief:  No*
G04 UndefLineWidth:     7.00*
G04 ================== end FILE IDENTIFICATION RECORD ====================*
%FSLAX25Y25*MOIN*%
%IR0*IPPOS*OFA0.00000B0.00000*MIA0B0*SFA1.00000B1.00000*%
%ADD10C,.006*%
%ADD11C,.007*%
%ADD12C,.00787*%
G75*
%LPD*%
G75*
G54D10*
G01X29200Y37150D02*
X13200D01*
G01D02*
Y44650D01*
G01X29200Y24950D02*
X13200D01*
G01D02*
Y32450D01*
G01D02*
X29200D01*
G01X13200Y44650D02*
X29200D01*
G01X12550Y128700D02*
Y144700D01*
G01X20050D02*
Y128700D01*
G01D02*
X12550D01*
G01X34700Y113250D02*
X18900D01*
G01D02*
Y117550D01*
G01D02*
X18050Y118400D01*
G01D02*
X18900Y119250D01*
G01D02*
Y123550D01*
G01D02*
X34700D01*
G01X12550Y144700D02*
X20050D01*
G01X29200Y44650D02*
Y37150D01*
G01Y32450D02*
Y24950D01*
G01X29600Y20750D02*
X45600D01*
G01D02*
Y13250D01*
G01D02*
X29600D01*
G01D02*
Y20750D01*
G01X38550Y81200D02*
Y65200D01*
G01D02*
X31050D01*
G01D02*
Y81200D01*
G01X50350Y65100D02*
X42850D01*
G01D02*
Y81100D01*
G01X38550Y104000D02*
Y88000D01*
G01D02*
X31050D01*
G01D02*
Y104000D01*
G01X50350Y88000D02*
X42850D01*
G01D02*
Y104000D01*
G01X31050Y81200D02*
X38550D01*
G01X42850Y81100D02*
X50350D01*
G01X47250Y128100D02*
Y144100D01*
G01X54750Y128100D02*
X47250D01*
G01X31050Y104000D02*
X38550D01*
G01X42850D02*
X50350D01*
G01X54900Y113250D02*
X39100D01*
G01D02*
Y117550D01*
G01D02*
X38250Y118400D01*
G01D02*
X39100Y119250D01*
G01D02*
Y123550D01*
G01D02*
X54900D01*
G01X34700D02*
Y113250D01*
G01X47250Y144100D02*
X54750D01*
G01X61350Y14500D02*
Y30500D01*
G01D02*
X68850D01*
G01D02*
Y14500D01*
G01D02*
X61350D01*
G01X85750Y30100D02*
X78250D01*
G01D02*
Y46100D01*
G01X50350Y81100D02*
Y65100D01*
G01X78250Y46100D02*
X85750D01*
G01X50350Y104000D02*
Y88000D01*
G01X54750Y144100D02*
Y128100D01*
G01X54900Y123550D02*
Y113250D01*
G01X85750Y46100D02*
Y30100D01*
G01X115050Y15700D02*
X107550D01*
G01D02*
Y31700D01*
G01D02*
X115050D01*
G01X97650Y128300D02*
Y144300D01*
G01X105150D02*
Y128300D01*
G01D02*
X97650D01*
G01X97500Y124150D02*
X113300D01*
G01Y113850D02*
X97500D01*
G01D02*
Y124150D01*
G01X97650Y144300D02*
X105150D01*
G01X115050Y31700D02*
Y15700D01*
G01X123050D02*
Y31700D01*
G01D02*
X130550D01*
G01D02*
Y15700D01*
G01D02*
X123050D01*
G01X143550D02*
X136050D01*
G01D02*
Y31700D01*
G01D02*
X143550D01*
G01X129550Y74700D02*
Y58700D01*
G01D02*
X122050D01*
G01D02*
Y74700D01*
G01D02*
X129550D01*
G01X124350Y86100D02*
Y102100D01*
G01X131850D02*
Y86100D01*
G01D02*
X124350D01*
G01Y102100D02*
X131850D01*
G01X113300Y124150D02*
Y119850D01*
G01D02*
X114150Y119000D01*
G01D02*
X113300Y118150D01*
G01D02*
Y113850D01*
G01X117800Y124150D02*
X133600D01*
G01D02*
Y119850D01*
G01D02*
X134450Y119000D01*
G01D02*
X133600Y118150D01*
G01D02*
Y113850D01*
G01D02*
X117800D01*
G01D02*
Y124150D01*
G01X143550Y31700D02*
Y15700D01*
G01X140650Y115200D02*
Y131200D01*
G01X148150D02*
Y115200D01*
G01D02*
X140650D01*
G01Y131200D02*
X148150D01*
G54D11*
G01X10267Y7500D02*
Y10500D01*
X10933D01*
X11200Y10350D01*
X11400Y10150D01*
X11567Y9850D01*
X11700Y9500D01*
X11733Y9000D01*
X11700Y8500D01*
X11567Y8150D01*
X11400Y7850D01*
X11200Y7650D01*
X10933Y7500D01*
X10267D01*
G01X13600D02*
X13333Y7550D01*
X13100Y7750D01*
X12900Y8050D01*
X12767Y8400D01*
X12700Y8800D01*
Y9200D01*
X12767Y9600D01*
X12900Y9950D01*
X13100Y10250D01*
X13333Y10450D01*
X13600Y10500D01*
X13867Y10450D01*
X14100Y10250D01*
X14300Y9950D01*
X14433Y9600D01*
X14500Y9200D01*
Y8800D01*
X14433Y8400D01*
X14300Y8050D01*
X14100Y7750D01*
X13867Y7550D01*
X13600Y7500D01*
G01X16467Y9100D02*
X16600Y9250D01*
X16700Y9500D01*
X16767Y9850D01*
X16700Y10150D01*
X16567Y10350D01*
X16333Y10500D01*
X15433D01*
Y7500D01*
X16533D01*
X16767Y7700D01*
X16900Y8000D01*
X16967Y8350D01*
X16900Y8700D01*
X16700Y9000D01*
X16467Y9100D01*
X15433D01*
G01X18133Y7500D02*
Y10500D01*
X18967D01*
X19233Y10350D01*
X19400Y10150D01*
X19467Y9750D01*
X19400Y9350D01*
X19200Y9100D01*
X18967Y8950D01*
X18133D01*
G01X18967D02*
X19467Y7500D01*
G01X22067D02*
X20733D01*
Y10500D01*
X22067D01*
G01X21533Y9050D02*
X20733D01*
G01X25767Y7500D02*
X26600Y10500D01*
X27433Y7500D01*
G01X27133Y8550D02*
X26067D01*
G01X28533Y10500D02*
Y7500D01*
X29867D01*
G01X32467D02*
X31133D01*
Y10500D01*
X32467D01*
G01X31933Y9050D02*
X31133D01*
G01X33700Y7500D02*
X35100Y10500D01*
G01X33700D02*
X35100Y7500D01*
G01X36167D02*
X37000Y10500D01*
X37833Y7500D01*
G01X37533Y8550D02*
X36467D01*
G01X38833Y7500D02*
Y10500D01*
X40367Y7500D01*
Y10500D01*
G01X41467Y7500D02*
Y10500D01*
X42133D01*
X42400Y10350D01*
X42600Y10150D01*
X42767Y9850D01*
X42900Y9500D01*
X42933Y9000D01*
X42900Y8500D01*
X42767Y8150D01*
X42600Y7850D01*
X42400Y7650D01*
X42133Y7500D01*
X41467D01*
G01X44133D02*
Y10500D01*
X44967D01*
X45233Y10350D01*
X45400Y10150D01*
X45467Y9750D01*
X45400Y9350D01*
X45200Y9100D01*
X44967Y8950D01*
X44133D01*
G01X44967D02*
X45467Y7500D01*
G01X46667Y10500D02*
Y8350D01*
X46800Y7900D01*
X47067Y7600D01*
X47400Y7500D01*
X47733Y7600D01*
X48000Y7900D01*
X48133Y8350D01*
Y10500D01*
G01X53000Y7500D02*
Y10500D01*
X51767Y8350D01*
X53433D01*
G01X54467Y8100D02*
X54667Y7750D01*
X54933Y7550D01*
X55233Y7500D01*
X55500Y7550D01*
X55767Y7800D01*
X55933Y8100D01*
X55967Y8400D01*
X55900Y8750D01*
X55667Y9000D01*
X55433Y9100D01*
X55133D01*
G01X55433D02*
X55633Y9250D01*
X55800Y9500D01*
X55867Y9800D01*
X55800Y10100D01*
X55633Y10350D01*
X55333Y10500D01*
X55033Y10450D01*
X54733Y10250D01*
G01X57800Y7500D02*
Y10500D01*
X57400Y9900D01*
G01Y7500D02*
X58200D01*
G01X61133Y10250D02*
X60933Y10400D01*
X60700Y10500D01*
X60433D01*
X60133Y10350D01*
X59900Y10100D01*
X59733Y9800D01*
X59600Y9300D01*
X59567Y8850D01*
X59633Y8400D01*
X59733Y8100D01*
X59933Y7800D01*
X60167Y7600D01*
X60400Y7500D01*
X60633D01*
X60867Y7600D01*
X61067Y7750D01*
X61233Y7950D01*
G01X18133Y33300D02*
Y36300D01*
X18967D01*
X19233Y36150D01*
X19400Y35950D01*
X19467Y35550D01*
X19400Y35150D01*
X19200Y34900D01*
X18967Y34750D01*
X18133D01*
G01X18967D02*
X19467Y33300D01*
G01X20733Y33900D02*
X20900Y33600D01*
X21100Y33400D01*
X21333Y33300D01*
X21600Y33400D01*
X21800Y33600D01*
X22000Y33900D01*
X22067Y34300D01*
Y36300D01*
G01X24000Y33300D02*
Y36300D01*
X23600Y35700D01*
G01Y33300D02*
X24400D01*
G01X19700Y66000D02*
X19433Y66050D01*
X19200Y66250D01*
X19000Y66550D01*
X18867Y66900D01*
X18800Y67300D01*
Y67700D01*
X18867Y68100D01*
X19000Y68450D01*
X19200Y68750D01*
X19433Y68950D01*
X19700Y69000D01*
X19967Y68950D01*
X20200Y68750D01*
X20400Y68450D01*
X20533Y68100D01*
X20600Y67700D01*
Y67300D01*
X20533Y66900D01*
X20400Y66550D01*
X20200Y66250D01*
X19967Y66050D01*
X19700Y66000D01*
G01X19967Y66800D02*
X20367Y66000D01*
G01X22300D02*
Y69000D01*
X21900Y68400D01*
G01Y66000D02*
X22700D01*
G01X14000Y52900D02*
X12500D01*
Y61900D01*
X18000D01*
G01X22000Y52900D02*
X20000D01*
G01X19533Y45600D02*
Y48600D01*
X20367D01*
X20633Y48450D01*
X20800Y48250D01*
X20867Y47850D01*
X20800Y47450D01*
X20600Y47200D01*
X20367Y47050D01*
X19533D01*
G01X20367D02*
X20867Y45600D01*
G01X22133Y46200D02*
X22300Y45900D01*
X22500Y45700D01*
X22733Y45600D01*
X23000Y45700D01*
X23200Y45900D01*
X23400Y46200D01*
X23467Y46600D01*
Y48600D01*
G01X11567Y100300D02*
X12400Y97300D01*
X13233Y100300D01*
G01X14600D02*
X15400D01*
G01X15000D02*
Y97300D01*
G01X14600D02*
X15400D01*
G01X16833D02*
Y100300D01*
X18367Y97300D01*
Y100300D01*
G01X21900Y75400D02*
Y95900D01*
X6900D01*
Y74900D01*
X21900D01*
Y75400D01*
G01X14533Y145900D02*
Y148900D01*
X15367D01*
X15633Y148750D01*
X15800Y148550D01*
X15867Y148150D01*
X15800Y147750D01*
X15600Y147500D01*
X15367Y147350D01*
X14533D01*
G01X15367D02*
X15867Y145900D01*
G01X17167Y147150D02*
X17400Y147500D01*
X17600Y147700D01*
X17867Y147800D01*
X18100Y147700D01*
X18267Y147500D01*
X18400Y147200D01*
X18433Y146850D01*
X18400Y146550D01*
X18267Y146250D01*
X18067Y146000D01*
X17833Y145900D01*
X17567Y146000D01*
X17333Y146300D01*
X17200Y146750D01*
X17167Y147250D01*
X17233Y147900D01*
X17333Y148250D01*
X17500Y148600D01*
X17733Y148850D01*
X17967Y148900D01*
X18200Y148800D01*
X18367Y148550D01*
G01X41100Y26300D02*
Y24800D01*
X50100D01*
Y30300D01*
G01X41100Y40300D02*
Y41800D01*
X50100D01*
Y36300D01*
G01X41100Y32300D02*
Y34300D01*
G01X30933Y21800D02*
Y24800D01*
X31767D01*
X32033Y24650D01*
X32200Y24450D01*
X32267Y24050D01*
X32200Y23650D01*
X32000Y23400D01*
X31767Y23250D01*
X30933D01*
G01X31767D02*
X32267Y21800D01*
G01X33533Y22400D02*
X33700Y22100D01*
X33900Y21900D01*
X34133Y21800D01*
X34400Y21900D01*
X34600Y22100D01*
X34800Y22400D01*
X34867Y22800D01*
Y24800D01*
G01X36167Y24300D02*
X36367Y24600D01*
X36600Y24750D01*
X36867Y24800D01*
X37200Y24700D01*
X37433Y24450D01*
X37500Y24150D01*
X37467Y23850D01*
X37333Y23600D01*
X36667Y23100D01*
X36367Y22750D01*
X36167Y22250D01*
X36100Y21800D01*
X37500D01*
G01X28000Y52900D02*
X29500D01*
Y61900D01*
X24000D01*
G01X42100Y59900D02*
X41833Y59950D01*
X41600Y60150D01*
X41400Y60450D01*
X41267Y60800D01*
X41200Y61200D01*
Y61600D01*
X41267Y62000D01*
X41400Y62350D01*
X41600Y62650D01*
X41833Y62850D01*
X42100Y62900D01*
X42367Y62850D01*
X42600Y62650D01*
X42800Y62350D01*
X42933Y62000D01*
X43000Y61600D01*
Y61200D01*
X42933Y60800D01*
X42800Y60450D01*
X42600Y60150D01*
X42367Y59950D01*
X42100Y59900D01*
G01X42367Y60700D02*
X42767Y59900D01*
G01X44067Y62400D02*
X44267Y62700D01*
X44500Y62850D01*
X44767Y62900D01*
X45100Y62800D01*
X45333Y62550D01*
X45400Y62250D01*
X45367Y61950D01*
X45233Y61700D01*
X44567Y61200D01*
X44267Y60850D01*
X44067Y60350D01*
X44000Y59900D01*
X45400D01*
G01X39500Y56300D02*
X38000D01*
Y47300D01*
X43500D01*
G01X53500Y56300D02*
X55000D01*
Y47300D01*
X49500D01*
G01X45500Y56300D02*
X47500D01*
G01X32433Y82800D02*
Y85800D01*
X33267D01*
X33533Y85650D01*
X33700Y85450D01*
X33767Y85050D01*
X33700Y84650D01*
X33500Y84400D01*
X33267Y84250D01*
X32433D01*
G01X33267D02*
X33767Y82800D01*
G01X35700D02*
Y85800D01*
X35300Y85200D01*
G01Y82800D02*
X36100D01*
G01X44633Y82600D02*
Y85600D01*
X45467D01*
X45733Y85450D01*
X45900Y85250D01*
X45967Y84850D01*
X45900Y84450D01*
X45700Y84200D01*
X45467Y84050D01*
X44633D01*
G01X45467D02*
X45967Y82600D01*
G01X47267Y85100D02*
X47467Y85400D01*
X47700Y85550D01*
X47967Y85600D01*
X48300Y85500D01*
X48533Y85250D01*
X48600Y84950D01*
X48567Y84650D01*
X48433Y84400D01*
X47767Y83900D01*
X47467Y83550D01*
X47267Y83050D01*
X47200Y82600D01*
X48600D01*
G01X37100Y129600D02*
Y128100D01*
X28100D01*
Y133600D01*
G01X31533Y105400D02*
Y108400D01*
X32367D01*
X32633Y108250D01*
X32800Y108050D01*
X32867Y107650D01*
X32800Y107250D01*
X32600Y107000D01*
X32367Y106850D01*
X31533D01*
G01X32367D02*
X32867Y105400D01*
G01X34800D02*
Y108400D01*
X34400Y107800D01*
G01Y105400D02*
X35200D01*
G01X36767Y107900D02*
X36967Y108200D01*
X37200Y108350D01*
X37467Y108400D01*
X37800Y108300D01*
X38033Y108050D01*
X38100Y107750D01*
X38067Y107450D01*
X37933Y107200D01*
X37267Y106700D01*
X36967Y106350D01*
X36767Y105850D01*
X36700Y105400D01*
X38100D01*
G01X43333Y104800D02*
Y107800D01*
X44167D01*
X44433Y107650D01*
X44600Y107450D01*
X44667Y107050D01*
X44600Y106650D01*
X44400Y106400D01*
X44167Y106250D01*
X43333D01*
G01X44167D02*
X44667Y104800D01*
G01X46600D02*
Y107800D01*
X46200Y107200D01*
G01Y104800D02*
X47000D01*
G01X48467Y105400D02*
X48667Y105050D01*
X48933Y104850D01*
X49233Y104800D01*
X49500Y104850D01*
X49767Y105100D01*
X49933Y105400D01*
X49967Y105700D01*
X49900Y106050D01*
X49667Y106300D01*
X49433Y106400D01*
X49133D01*
G01X49433D02*
X49633Y106550D01*
X49800Y106800D01*
X49867Y107100D01*
X49800Y107400D01*
X49633Y107650D01*
X49333Y107800D01*
X49033Y107750D01*
X48733Y107550D01*
G01X45267Y112200D02*
Y110050D01*
X45400Y109600D01*
X45667Y109300D01*
X46000Y109200D01*
X46333Y109300D01*
X46600Y109600D01*
X46733Y110050D01*
Y112200D01*
G01X48600Y109200D02*
Y112200D01*
X48200Y111600D01*
G01Y109200D02*
X49000D01*
G01X24467Y112000D02*
Y109850D01*
X24600Y109400D01*
X24867Y109100D01*
X25200Y109000D01*
X25533Y109100D01*
X25800Y109400D01*
X25933Y109850D01*
Y112000D01*
G01X27167Y111500D02*
X27367Y111800D01*
X27600Y111950D01*
X27867Y112000D01*
X28200Y111900D01*
X28433Y111650D01*
X28500Y111350D01*
X28467Y111050D01*
X28333Y110800D01*
X27667Y110300D01*
X27367Y109950D01*
X27167Y109450D01*
X27100Y109000D01*
X28500D01*
G01X31000Y146100D02*
X30733Y146150D01*
X30500Y146350D01*
X30300Y146650D01*
X30167Y147000D01*
X30100Y147400D01*
Y147800D01*
X30167Y148200D01*
X30300Y148550D01*
X30500Y148850D01*
X30733Y149050D01*
X31000Y149100D01*
X31267Y149050D01*
X31500Y148850D01*
X31700Y148550D01*
X31833Y148200D01*
X31900Y147800D01*
Y147400D01*
X31833Y147000D01*
X31700Y146650D01*
X31500Y146350D01*
X31267Y146150D01*
X31000Y146100D01*
G01X31267Y146900D02*
X31667Y146100D01*
G01X32867Y146550D02*
X33067Y146300D01*
X33300Y146150D01*
X33600Y146100D01*
X33900Y146200D01*
X34133Y146400D01*
X34300Y146750D01*
X34333Y147150D01*
X34267Y147550D01*
X34100Y147800D01*
X33867Y148000D01*
X33633Y148050D01*
X33400Y148000D01*
X33100Y147800D01*
X33200Y149100D01*
X34100D01*
G01X37100Y143600D02*
Y145100D01*
X28100D01*
Y139600D01*
G01X37100Y137600D02*
Y135600D01*
G01X49033Y145100D02*
Y148100D01*
X49867D01*
X50133Y147950D01*
X50300Y147750D01*
X50367Y147350D01*
X50300Y146950D01*
X50100Y146700D01*
X49867Y146550D01*
X49033D01*
G01X49867D02*
X50367Y145100D01*
G01X51567Y145550D02*
X51767Y145300D01*
X52000Y145150D01*
X52300Y145100D01*
X52600Y145200D01*
X52833Y145400D01*
X53000Y145750D01*
X53033Y146150D01*
X52967Y146550D01*
X52800Y146800D01*
X52567Y147000D01*
X52333Y147050D01*
X52100Y147000D01*
X51800Y146800D01*
X51900Y148100D01*
X52800D01*
G01X75200Y7700D02*
X95700D01*
Y22700D01*
X74700D01*
Y7700D01*
X75200D01*
G01X54700Y32000D02*
X54433Y32050D01*
X54200Y32250D01*
X54000Y32550D01*
X53867Y32900D01*
X53800Y33300D01*
Y33700D01*
X53867Y34100D01*
X54000Y34450D01*
X54200Y34750D01*
X54433Y34950D01*
X54700Y35000D01*
X54967Y34950D01*
X55200Y34750D01*
X55400Y34450D01*
X55533Y34100D01*
X55600Y33700D01*
Y33300D01*
X55533Y32900D01*
X55400Y32550D01*
X55200Y32250D01*
X54967Y32050D01*
X54700Y32000D01*
G01X54967Y32800D02*
X55367Y32000D01*
G01X56567Y32600D02*
X56767Y32250D01*
X57033Y32050D01*
X57333Y32000D01*
X57600Y32050D01*
X57867Y32300D01*
X58033Y32600D01*
X58067Y32900D01*
X58000Y33250D01*
X57767Y33500D01*
X57533Y33600D01*
X57233D01*
G01X57533D02*
X57733Y33750D01*
X57900Y34000D01*
X57967Y34300D01*
X57900Y34600D01*
X57733Y34850D01*
X57433Y35000D01*
X57133Y34950D01*
X56833Y34750D01*
G01X63533Y31400D02*
Y34400D01*
X64367D01*
X64633Y34250D01*
X64800Y34050D01*
X64867Y33650D01*
X64800Y33250D01*
X64600Y33000D01*
X64367Y32850D01*
X63533D01*
G01X64367D02*
X64867Y31400D01*
G01X66067Y32000D02*
X66267Y31650D01*
X66533Y31450D01*
X66833Y31400D01*
X67100Y31450D01*
X67367Y31700D01*
X67533Y32000D01*
X67567Y32300D01*
X67500Y32650D01*
X67267Y32900D01*
X67033Y33000D01*
X66733D01*
G01X67033D02*
X67233Y33150D01*
X67400Y33400D01*
X67467Y33700D01*
X67400Y34000D01*
X67233Y34250D01*
X66933Y34400D01*
X66633Y34350D01*
X66333Y34150D01*
G01X61900Y60100D02*
X61633Y60150D01*
X61400Y60350D01*
X61200Y60650D01*
X61067Y61000D01*
X61000Y61400D01*
Y61800D01*
X61067Y62200D01*
X61200Y62550D01*
X61400Y62850D01*
X61633Y63050D01*
X61900Y63100D01*
X62167Y63050D01*
X62400Y62850D01*
X62600Y62550D01*
X62733Y62200D01*
X62800Y61800D01*
Y61400D01*
X62733Y61000D01*
X62600Y60650D01*
X62400Y60350D01*
X62167Y60150D01*
X61900Y60100D01*
G01X62167Y60900D02*
X62567Y60100D01*
G01X64900D02*
Y63100D01*
X63667Y60950D01*
X65333D01*
G01X60500Y56300D02*
X59000D01*
Y47300D01*
X64500D01*
G01X74500Y56300D02*
X76000D01*
Y47300D01*
X70500D01*
G01X66500Y56300D02*
X68500D01*
G01X80633Y47000D02*
Y50000D01*
X81467D01*
X81733Y49850D01*
X81900Y49650D01*
X81967Y49250D01*
X81900Y48850D01*
X81700Y48600D01*
X81467Y48450D01*
X80633D01*
G01X81467D02*
X81967Y47000D01*
G01X84300D02*
Y50000D01*
X83067Y47850D01*
X84733D01*
G01X72067Y134100D02*
X72900Y131100D01*
X73733Y134100D01*
G01X76233Y133850D02*
X76033Y134000D01*
X75800Y134100D01*
X75533D01*
X75233Y133950D01*
X75000Y133700D01*
X74833Y133400D01*
X74700Y132900D01*
X74667Y132450D01*
X74733Y132000D01*
X74833Y131700D01*
X75033Y131400D01*
X75267Y131200D01*
X75500Y131100D01*
X75733D01*
X75967Y131200D01*
X76167Y131350D01*
X76333Y131550D01*
G01X78833Y133850D02*
X78633Y134000D01*
X78400Y134100D01*
X78133D01*
X77833Y133950D01*
X77600Y133700D01*
X77433Y133400D01*
X77300Y132900D01*
X77267Y132450D01*
X77333Y132000D01*
X77433Y131700D01*
X77633Y131400D01*
X77867Y131200D01*
X78100Y131100D01*
X78333D01*
X78567Y131200D01*
X78767Y131350D01*
X78933Y131550D01*
G01X72100Y121100D02*
X71833Y121150D01*
X71600Y121350D01*
X71400Y121650D01*
X71267Y122000D01*
X71200Y122400D01*
Y122800D01*
X71267Y123200D01*
X71400Y123550D01*
X71600Y123850D01*
X71833Y124050D01*
X72100Y124100D01*
X72367Y124050D01*
X72600Y123850D01*
X72800Y123550D01*
X72933Y123200D01*
X73000Y122800D01*
Y122400D01*
X72933Y122000D01*
X72800Y121650D01*
X72600Y121350D01*
X72367Y121150D01*
X72100Y121100D01*
G01X72367Y121900D02*
X72767Y121100D01*
G01X74700D02*
X74933Y121150D01*
X75200Y121300D01*
X75367Y121550D01*
X75433Y121900D01*
X75367Y122250D01*
X75167Y122550D01*
X74867Y122700D01*
X74533D01*
X74333Y122800D01*
X74167Y123050D01*
X74100Y123400D01*
X74200Y123750D01*
X74433Y124000D01*
X74700Y124100D01*
X74967Y124000D01*
X75200Y123750D01*
X75300Y123400D01*
X75233Y123050D01*
X75067Y122800D01*
X74867Y122700D01*
X74533D01*
X74233Y122550D01*
X74033Y122250D01*
X73967Y121900D01*
X74033Y121550D01*
X74200Y121300D01*
X74467Y121150D01*
X74700Y121100D01*
G01X65200Y135600D02*
X85700D01*
Y150600D01*
X64700D01*
Y135600D01*
X65200D01*
G01X106533Y9000D02*
Y12000D01*
X107333D01*
X107600Y11850D01*
X107800Y11500D01*
X107867Y11100D01*
X107800Y10700D01*
X107633Y10400D01*
X107333Y10250D01*
X106533D01*
G01X109800Y9000D02*
Y12000D01*
X109400Y11400D01*
G01Y9000D02*
X110200D01*
G01X111667D02*
Y12000D01*
X112333D01*
X112600Y11850D01*
X112800Y11650D01*
X112967Y11350D01*
X113100Y11000D01*
X113133Y10500D01*
X113100Y10000D01*
X112967Y9650D01*
X112800Y9350D01*
X112600Y9150D01*
X112333Y9000D01*
X111667D01*
G01X115733Y11750D02*
X115533Y11900D01*
X115300Y12000D01*
X115033D01*
X114733Y11850D01*
X114500Y11600D01*
X114333Y11300D01*
X114200Y10800D01*
X114167Y10350D01*
X114233Y9900D01*
X114333Y9600D01*
X114533Y9300D01*
X114767Y9100D01*
X115000Y9000D01*
X115233D01*
X115467Y9100D01*
X115667Y9250D01*
X115833Y9450D01*
G01X118267Y9000D02*
X116933D01*
Y12000D01*
X118267D01*
G01X117733Y10550D02*
X116933D01*
G01X122167Y11500D02*
X122367Y11800D01*
X122600Y11950D01*
X122867Y12000D01*
X123200Y11900D01*
X123433Y11650D01*
X123500Y11350D01*
X123467Y11050D01*
X123333Y10800D01*
X122667Y10300D01*
X122367Y9950D01*
X122167Y9450D01*
X122100Y9000D01*
X123500D01*
G01X125400Y12000D02*
X125133Y11900D01*
X124933Y11650D01*
X124800Y11350D01*
X124700Y10950D01*
X124667Y10500D01*
X124700Y10050D01*
X124800Y9650D01*
X124933Y9350D01*
X125133Y9100D01*
X125400Y9000D01*
X125667Y9100D01*
X125867Y9350D01*
X126000Y9650D01*
X126100Y10050D01*
X126133Y10500D01*
X126100Y10950D01*
X126000Y11350D01*
X125867Y11650D01*
X125667Y11900D01*
X125400Y12000D01*
G01X127367Y11500D02*
X127567Y11800D01*
X127800Y11950D01*
X128067Y12000D01*
X128400Y11900D01*
X128633Y11650D01*
X128700Y11350D01*
X128667Y11050D01*
X128533Y10800D01*
X127867Y10300D01*
X127567Y9950D01*
X127367Y9450D01*
X127300Y9000D01*
X128700D01*
G01X129867Y9450D02*
X130067Y9200D01*
X130300Y9050D01*
X130600Y9000D01*
X130900Y9100D01*
X131133Y9300D01*
X131300Y9650D01*
X131333Y10050D01*
X131267Y10450D01*
X131100Y10700D01*
X130867Y10900D01*
X130633Y10950D01*
X130400Y10900D01*
X130100Y10700D01*
X130200Y12000D01*
X131100D01*
G01X132767Y10000D02*
X133633D01*
G01X135167Y11500D02*
X135367Y11800D01*
X135600Y11950D01*
X135867Y12000D01*
X136200Y11900D01*
X136433Y11650D01*
X136500Y11350D01*
X136467Y11050D01*
X136333Y10800D01*
X135667Y10300D01*
X135367Y9950D01*
X135167Y9450D01*
X135100Y9000D01*
X136500D01*
G01X138400Y12000D02*
X138133Y11900D01*
X137933Y11650D01*
X137800Y11350D01*
X137700Y10950D01*
X137667Y10500D01*
X137700Y10050D01*
X137800Y9650D01*
X137933Y9350D01*
X138133Y9100D01*
X138400Y9000D01*
X138667Y9100D01*
X138867Y9350D01*
X139000Y9650D01*
X139100Y10050D01*
X139133Y10500D01*
X139100Y10950D01*
X139000Y11350D01*
X138867Y11650D01*
X138667Y11900D01*
X138400Y12000D01*
G01X140367Y11500D02*
X140567Y11800D01*
X140800Y11950D01*
X141067Y12000D01*
X141400Y11900D01*
X141633Y11650D01*
X141700Y11350D01*
X141667Y11050D01*
X141533Y10800D01*
X140867Y10300D01*
X140567Y9950D01*
X140367Y9450D01*
X140300Y9000D01*
X141700D01*
G01X142967Y10250D02*
X143200Y10600D01*
X143400Y10800D01*
X143667Y10900D01*
X143900Y10800D01*
X144067Y10600D01*
X144200Y10300D01*
X144233Y9950D01*
X144200Y9650D01*
X144067Y9350D01*
X143867Y9100D01*
X143633Y9000D01*
X143367Y9100D01*
X143133Y9400D01*
X143000Y9850D01*
X142967Y10350D01*
X143033Y11000D01*
X143133Y11350D01*
X143300Y11700D01*
X143533Y11950D01*
X143767Y12000D01*
X144000Y11900D01*
X144167Y11650D01*
G01X86867Y26900D02*
X87700Y23900D01*
X88533Y26900D01*
G01X90967Y23900D02*
X89633D01*
Y26900D01*
X90967D01*
G01X90433Y25450D02*
X89633D01*
G01X93567Y23900D02*
X92233D01*
Y26900D01*
X93567D01*
G01X93033Y25450D02*
X92233D01*
G01X107933Y32700D02*
Y35700D01*
X108767D01*
X109033Y35550D01*
X109200Y35350D01*
X109267Y34950D01*
X109200Y34550D01*
X109000Y34300D01*
X108767Y34150D01*
X107933D01*
G01X108767D02*
X109267Y32700D01*
G01X111200D02*
Y35700D01*
X110800Y35100D01*
G01Y32700D02*
X111600D01*
G01X113800D02*
Y35700D01*
X113400Y35100D01*
G01Y32700D02*
X114200D01*
G01X104200Y86900D02*
X103933Y86950D01*
X103700Y87150D01*
X103500Y87450D01*
X103367Y87800D01*
X103300Y88200D01*
Y88600D01*
X103367Y89000D01*
X103500Y89350D01*
X103700Y89650D01*
X103933Y89850D01*
X104200Y89900D01*
X104467Y89850D01*
X104700Y89650D01*
X104900Y89350D01*
X105033Y89000D01*
X105100Y88600D01*
Y88200D01*
X105033Y87800D01*
X104900Y87450D01*
X104700Y87150D01*
X104467Y86950D01*
X104200Y86900D01*
G01X104467Y87700D02*
X104867Y86900D01*
G01X106233Y87250D02*
X106467Y87000D01*
X106733Y86900D01*
X107000Y87000D01*
X107233Y87300D01*
X107400Y87750D01*
X107467Y88200D01*
Y88750D01*
X107400Y89200D01*
X107233Y89600D01*
X107033Y89800D01*
X106800Y89900D01*
X106533Y89800D01*
X106333Y89600D01*
X106200Y89300D01*
X106133Y88900D01*
X106200Y88550D01*
X106367Y88200D01*
X106567Y88000D01*
X106800Y87950D01*
X107067Y88050D01*
X107267Y88300D01*
X107467Y88750D01*
G01X102067Y112900D02*
Y110750D01*
X102200Y110300D01*
X102467Y110000D01*
X102800Y109900D01*
X103133Y110000D01*
X103400Y110300D01*
X103533Y110750D01*
Y112900D01*
G01X104667Y110500D02*
X104867Y110150D01*
X105133Y109950D01*
X105433Y109900D01*
X105700Y109950D01*
X105967Y110200D01*
X106133Y110500D01*
X106167Y110800D01*
X106100Y111150D01*
X105867Y111400D01*
X105633Y111500D01*
X105333D01*
G01X105633D02*
X105833Y111650D01*
X106000Y111900D01*
X106067Y112200D01*
X106000Y112500D01*
X105833Y112750D01*
X105533Y112900D01*
X105233Y112850D01*
X104933Y112650D01*
G01X110000Y141000D02*
X108500D01*
Y132000D01*
X114000D01*
G01X100433Y145700D02*
Y148700D01*
X101267D01*
X101533Y148550D01*
X101700Y148350D01*
X101767Y147950D01*
X101700Y147550D01*
X101500Y147300D01*
X101267Y147150D01*
X100433D01*
G01X101267D02*
X101767Y145700D01*
G01X103633D02*
X103700Y146350D01*
X103800Y146900D01*
X103933Y147400D01*
X104100Y147950D01*
X104367Y148700D01*
X103033D01*
G01X134300Y38000D02*
Y36500D01*
X125300D01*
Y42000D01*
G01X123333Y32600D02*
Y35600D01*
X124167D01*
X124433Y35450D01*
X124600Y35250D01*
X124667Y34850D01*
X124600Y34450D01*
X124400Y34200D01*
X124167Y34050D01*
X123333D01*
G01X124167D02*
X124667Y32600D01*
G01X126600D02*
Y35600D01*
X126200Y35000D01*
G01Y32600D02*
X127000D01*
G01X129200Y35600D02*
X128933Y35500D01*
X128733Y35250D01*
X128600Y34950D01*
X128500Y34550D01*
X128467Y34100D01*
X128500Y33650D01*
X128600Y33250D01*
X128733Y32950D01*
X128933Y32700D01*
X129200Y32600D01*
X129467Y32700D01*
X129667Y32950D01*
X129800Y33250D01*
X129900Y33650D01*
X129933Y34100D01*
X129900Y34550D01*
X129800Y34950D01*
X129667Y35250D01*
X129467Y35500D01*
X129200Y35600D01*
G01X135933Y32700D02*
Y35700D01*
X136767D01*
X137033Y35550D01*
X137200Y35350D01*
X137267Y34950D01*
X137200Y34550D01*
X137000Y34300D01*
X136767Y34150D01*
X135933D01*
G01X136767D02*
X137267Y32700D01*
G01X139200D02*
Y35700D01*
X138800Y35100D01*
G01Y32700D02*
X139600D01*
G01X142200D02*
Y35700D01*
X140967Y33550D01*
X142633D01*
G01X126600Y54500D02*
X126333Y54550D01*
X126100Y54750D01*
X125900Y55050D01*
X125767Y55400D01*
X125700Y55800D01*
Y56200D01*
X125767Y56600D01*
X125900Y56950D01*
X126100Y57250D01*
X126333Y57450D01*
X126600Y57500D01*
X126867Y57450D01*
X127100Y57250D01*
X127300Y56950D01*
X127433Y56600D01*
X127500Y56200D01*
Y55800D01*
X127433Y55400D01*
X127300Y55050D01*
X127100Y54750D01*
X126867Y54550D01*
X126600Y54500D01*
G01X126867Y55300D02*
X127267Y54500D01*
G01X129200D02*
Y57500D01*
X128800Y56900D01*
G01Y54500D02*
X129600D01*
G01X131800Y57500D02*
X131533Y57400D01*
X131333Y57150D01*
X131200Y56850D01*
X131100Y56450D01*
X131067Y56000D01*
X131100Y55550D01*
X131200Y55150D01*
X131333Y54850D01*
X131533Y54600D01*
X131800Y54500D01*
X132067Y54600D01*
X132267Y54850D01*
X132400Y55150D01*
X132500Y55550D01*
X132533Y56000D01*
X132500Y56450D01*
X132400Y56850D01*
X132267Y57150D01*
X132067Y57400D01*
X131800Y57500D01*
G01X134300Y52000D02*
Y53500D01*
X125300D01*
Y48000D01*
G01X134300Y46000D02*
Y44000D01*
G01X134500Y71400D02*
X133000D01*
Y62400D01*
X138500D01*
G01X136600Y104900D02*
Y84400D01*
X151600D01*
Y105400D01*
X136600D01*
Y104900D01*
G01X136300Y75200D02*
X136033Y75250D01*
X135800Y75450D01*
X135600Y75750D01*
X135467Y76100D01*
X135400Y76500D01*
Y76900D01*
X135467Y77300D01*
X135600Y77650D01*
X135800Y77950D01*
X136033Y78150D01*
X136300Y78200D01*
X136567Y78150D01*
X136800Y77950D01*
X137000Y77650D01*
X137133Y77300D01*
X137200Y76900D01*
Y76500D01*
X137133Y76100D01*
X137000Y75750D01*
X136800Y75450D01*
X136567Y75250D01*
X136300Y75200D01*
G01X136567Y76000D02*
X136967Y75200D01*
G01X138267Y76450D02*
X138500Y76800D01*
X138700Y77000D01*
X138967Y77100D01*
X139200Y77000D01*
X139367Y76800D01*
X139500Y76500D01*
X139533Y76150D01*
X139500Y75850D01*
X139367Y75550D01*
X139167Y75300D01*
X138933Y75200D01*
X138667Y75300D01*
X138433Y75600D01*
X138300Y76050D01*
X138267Y76550D01*
X138333Y77200D01*
X138433Y77550D01*
X138600Y77900D01*
X138833Y78150D01*
X139067Y78200D01*
X139300Y78100D01*
X139467Y77850D01*
G01X123933Y75500D02*
Y78500D01*
X124767D01*
X125033Y78350D01*
X125200Y78150D01*
X125267Y77750D01*
X125200Y77350D01*
X125000Y77100D01*
X124767Y76950D01*
X123933D01*
G01X124767D02*
X125267Y75500D01*
G01X126633Y75850D02*
X126867Y75600D01*
X127133Y75500D01*
X127400Y75600D01*
X127633Y75900D01*
X127800Y76350D01*
X127867Y76800D01*
Y77350D01*
X127800Y77800D01*
X127633Y78200D01*
X127433Y78400D01*
X127200Y78500D01*
X126933Y78400D01*
X126733Y78200D01*
X126600Y77900D01*
X126533Y77500D01*
X126600Y77150D01*
X126767Y76800D01*
X126967Y76600D01*
X127200Y76550D01*
X127467Y76650D01*
X127667Y76900D01*
X127867Y77350D01*
G01X140267Y109300D02*
X141100Y106300D01*
X141933Y109300D01*
G01X143700Y106300D02*
X143433Y106350D01*
X143200Y106550D01*
X143000Y106850D01*
X142867Y107200D01*
X142800Y107600D01*
Y108000D01*
X142867Y108400D01*
X143000Y108750D01*
X143200Y109050D01*
X143433Y109250D01*
X143700Y109300D01*
X143967Y109250D01*
X144200Y109050D01*
X144400Y108750D01*
X144533Y108400D01*
X144600Y108000D01*
Y107600D01*
X144533Y107200D01*
X144400Y106850D01*
X144200Y106550D01*
X143967Y106350D01*
X143700Y106300D01*
G01X145567Y109300D02*
Y107150D01*
X145700Y106700D01*
X145967Y106400D01*
X146300Y106300D01*
X146633Y106400D01*
X146900Y106700D01*
X147033Y107150D01*
Y109300D01*
G01X148900D02*
Y106300D01*
G01X148133Y109300D02*
X149667D01*
G01X126533Y103100D02*
Y106100D01*
X127367D01*
X127633Y105950D01*
X127800Y105750D01*
X127867Y105350D01*
X127800Y104950D01*
X127600Y104700D01*
X127367Y104550D01*
X126533D01*
G01X127367D02*
X127867Y103100D01*
G01X129133Y106100D02*
Y103100D01*
X130467D01*
G01X123467Y112300D02*
Y110150D01*
X123600Y109700D01*
X123867Y109400D01*
X124200Y109300D01*
X124533Y109400D01*
X124800Y109700D01*
X124933Y110150D01*
Y112300D01*
G01X127200Y109300D02*
Y112300D01*
X125967Y110150D01*
X127633D01*
G01X115800Y144100D02*
X115533Y144150D01*
X115300Y144350D01*
X115100Y144650D01*
X114967Y145000D01*
X114900Y145400D01*
Y145800D01*
X114967Y146200D01*
X115100Y146550D01*
X115300Y146850D01*
X115533Y147050D01*
X115800Y147100D01*
X116067Y147050D01*
X116300Y146850D01*
X116500Y146550D01*
X116633Y146200D01*
X116700Y145800D01*
Y145400D01*
X116633Y145000D01*
X116500Y144650D01*
X116300Y144350D01*
X116067Y144150D01*
X115800Y144100D01*
G01X116067Y144900D02*
X116467Y144100D01*
G01X118333D02*
X118400Y144750D01*
X118500Y145300D01*
X118633Y145800D01*
X118800Y146350D01*
X119067Y147100D01*
X117733D01*
G01X124000Y141000D02*
X125500D01*
Y132000D01*
X120000D01*
G01X116000Y141000D02*
X118000D01*
G01X144200Y35700D02*
X143933Y35750D01*
X143700Y35950D01*
X143500Y36250D01*
X143367Y36600D01*
X143300Y37000D01*
Y37400D01*
X143367Y37800D01*
X143500Y38150D01*
X143700Y38450D01*
X143933Y38650D01*
X144200Y38700D01*
X144467Y38650D01*
X144700Y38450D01*
X144900Y38150D01*
X145033Y37800D01*
X145100Y37400D01*
Y37000D01*
X145033Y36600D01*
X144900Y36250D01*
X144700Y35950D01*
X144467Y35750D01*
X144200Y35700D01*
G01X144467Y36500D02*
X144867Y35700D01*
G01X146800D02*
Y38700D01*
X146400Y38100D01*
G01Y35700D02*
X147200D01*
G01X149400D02*
Y38700D01*
X149000Y38100D01*
G01Y35700D02*
X149800D01*
G01X149400Y55900D02*
Y57400D01*
X140400D01*
Y51900D01*
G01X149400Y41900D02*
Y40400D01*
X140400D01*
Y45900D01*
G01X149400Y49900D02*
Y47900D01*
G01X148500Y71400D02*
X150000D01*
Y62400D01*
X144500D01*
G01X140500Y71400D02*
X142500D01*
G01X144333Y131900D02*
Y134900D01*
X145167D01*
X145433Y134750D01*
X145600Y134550D01*
X145667Y134150D01*
X145600Y133750D01*
X145400Y133500D01*
X145167Y133350D01*
X144333D01*
G01X145167D02*
X145667Y131900D01*
G01X147600D02*
X147833Y131950D01*
X148100Y132100D01*
X148267Y132350D01*
X148333Y132700D01*
X148267Y133050D01*
X148067Y133350D01*
X147767Y133500D01*
X147433D01*
X147233Y133600D01*
X147067Y133850D01*
X147000Y134200D01*
X147100Y134550D01*
X147333Y134800D01*
X147600Y134900D01*
X147867Y134800D01*
X148100Y134550D01*
X148200Y134200D01*
X148133Y133850D01*
X147967Y133600D01*
X147767Y133500D01*
X147433D01*
X147133Y133350D01*
X146933Y133050D01*
X146867Y132700D01*
X146933Y132350D01*
X147100Y132100D01*
X147367Y131950D01*
X147600Y131900D01*
G54D12*
G01X86047Y94048D02*
Y119639D01*
X60063D01*
Y85780D01*
X59276Y84993D01*
Y70820D01*
X86835D01*
Y84993D01*
X86047Y85780D01*
Y94048D01*
G01X91353Y62552D02*
Y36961D01*
X117337D01*
Y70820D01*
X118124Y71607D01*
Y85780D01*
X90565D01*
Y71607D01*
X91353Y70820D01*
Y62552D01*
M02*
