G04 ================== begin FILE IDENTIFICATION RECORD ==================*
G04 Layout Name:  LAYOUT.brd*
G04 Film Name:    TOP*
G04 File Format:  Gerber RS274X*
G04 File Origin:  Cadence Allegro 16.6-P004*
G04 Origin Date:  Sat Dec 06 09:43:16 2025*
G04 *
G04 Layer:  ETCH/TOP*
G04 Layer:  PIN/TOP*
G04 Layer:  VIA CLASS/TOP*
G04 *
G04 Offset:    (0.00 0.00)*
G04 Mirror:    No*
G04 Mode:      Positive*
G04 Rotation:  0*
G04 FullContactRelief:  No*
G04 UndefLineWidth:     7.00*
G04 ================== end FILE IDENTIFICATION RECORD ====================*
%FSLAX25Y25*MOIN*%
%IR0*IPPOS*OFA0.00000B0.00000*MIA0B0*SFA1.00000B1.00000*%
%ADD13R,.12X.08*%
%ADD17R,.08X.12*%
%ADD16C,.03*%
%ADD10C,.04*%
%ADD11R,.05X.05*%
%ADD19R,.06299X.11811*%
%ADD12R,.036X.05*%
%ADD15R,.05X.036*%
%ADD14R,.048X.076*%
%ADD18R,.22835X.24409*%
%ADD20C,.018*%
%ADD21C,.07878*%
%ADD22R,.07804X.07804*%
G75*
%LPD*%
G75*
G36*
G01X4300Y4900D02*
Y153000D01*
X8380D01*
G02X8662Y152317I-1J-400D01*
G01X5098Y148753D01*
Y104347D01*
X11547Y97898D01*
X30898D01*
Y96298D01*
X38702D01*
Y97898D01*
X42698D01*
Y96298D01*
X50502D01*
Y104102D01*
X42698D01*
Y102502D01*
X38702D01*
Y104102D01*
X30898D01*
Y102502D01*
X13453D01*
X9702Y106253D01*
Y146847D01*
X11153Y148298D01*
X24647D01*
X26298Y146647D01*
Y139602D01*
X24698D01*
Y133922D01*
G02X24016Y133639I-400J0D01*
G01X22853Y134802D01*
X20202D01*
Y136402D01*
X12398D01*
Y128598D01*
X13998D01*
Y119347D01*
X17247Y116098D01*
X19098D01*
Y113198D01*
X34602D01*
Y116098D01*
X39298D01*
Y113198D01*
X48698D01*
Y110947D01*
X55340Y104306D01*
X60157D01*
Y93001D01*
X85795D01*
Y120213D01*
X76297D01*
G02X76015Y120896I1J400D01*
G01X82502Y127383D01*
Y135698D01*
X85602D01*
Y140798D01*
X86147D01*
X90698Y136247D01*
Y133847D01*
X94747Y129798D01*
X97498D01*
Y128198D01*
X99098D01*
Y124202D01*
X97598D01*
Y113798D01*
X113102D01*
Y116698D01*
X117898D01*
Y113798D01*
X133402D01*
Y116698D01*
X140498D01*
Y115098D01*
X148302D01*
Y122902D01*
X140498D01*
Y121302D01*
X133402D01*
Y124202D01*
X131902D01*
Y136953D01*
X126053Y142802D01*
X124202D01*
Y144402D01*
X117798D01*
Y136402D01*
X116502D01*
Y144402D01*
X110098D01*
Y142802D01*
X105302D01*
Y144402D01*
X97498D01*
Y136598D01*
X105302D01*
Y138198D01*
X110098D01*
Y136598D01*
X113998D01*
Y128598D01*
X120402D01*
Y129178D01*
G02X121084Y129461I400J0D01*
G01X121295Y129251D01*
X121270Y129143D01*
G03X126560Y126960I2830J-643D01*
G02X127298Y126748I338J-213D01*
G01Y124202D01*
X117898D01*
Y121302D01*
X113102D01*
Y124202D01*
X103702D01*
Y128198D01*
X105302D01*
Y136002D01*
X97498D01*
Y134402D01*
X96653D01*
X95302Y135753D01*
Y138153D01*
X88053Y145402D01*
X85602D01*
Y150502D01*
X64798D01*
Y135698D01*
X77898D01*
Y129289D01*
X70674Y122065D01*
Y120213D01*
X60157D01*
Y108908D01*
X57246D01*
X53302Y112853D01*
Y113198D01*
X54802D01*
Y123602D01*
X53302D01*
Y127998D01*
X54902D01*
Y135802D01*
X47098D01*
Y127998D01*
X48698D01*
Y123602D01*
X39298D01*
Y120702D01*
X34602D01*
Y123602D01*
X19098D01*
Y121240D01*
G02X18757Y121098I-200J0D01*
G01X18602Y121253D01*
Y128598D01*
X20202D01*
Y130198D01*
X20947D01*
X23647Y127498D01*
X31153D01*
X33053Y129398D01*
X40502D01*
Y135802D01*
X32502D01*
Y137098D01*
X40502D01*
Y137998D01*
X47098D01*
Y136398D01*
X54902D01*
Y144202D01*
X47098D01*
Y142602D01*
X40502D01*
Y143502D01*
X32698D01*
Y139602D01*
X30902D01*
Y148553D01*
X27138Y152317D01*
G02X27420Y153000I283J283D01*
G01X152600D01*
Y80520D01*
G02X151917Y80238I-400J1D01*
G01X149353Y82802D01*
X120097D01*
X118634Y81339D01*
G02X117951Y81621I-283J283D01*
G01Y85607D01*
X108849D01*
Y70993D01*
X117951D01*
Y75998D01*
X119803D01*
X122003Y78198D01*
X140886D01*
G02X141263Y77665I0J-400D01*
G03X142298Y74349I2737J-965D01*
G01Y66802D01*
X141002D01*
Y74802D01*
X134598D01*
Y73202D01*
X129702D01*
Y74802D01*
X121898D01*
Y66998D01*
X129702D01*
Y68598D01*
X134598D01*
Y66998D01*
X138498D01*
Y58998D01*
X144902D01*
Y59578D01*
G02X145584Y59861I400J0D01*
G01X146598Y58847D01*
Y55802D01*
X144998D01*
Y51902D01*
X129898D01*
Y48002D01*
X121898D01*
Y42788D01*
G02X121462Y42390I-400J0D01*
G03X122916Y37160I-262J-2890D01*
G01X122969Y37198D01*
X123573D01*
X128287Y32484D01*
G02X128004Y31802I-283J-282D01*
G01X122898D01*
Y30202D01*
X120668D01*
G03X117132I-1768J-2302D01*
G01X115202D01*
Y31802D01*
X107398D01*
Y23998D01*
X115202D01*
Y25598D01*
X117132D01*
G03X120668I1768J2302D01*
G01X122898D01*
Y23998D01*
X130702D01*
Y31998D01*
X132753D01*
X136102Y35347D01*
Y37798D01*
X137702D01*
Y44202D01*
X129702D01*
Y45498D01*
X138598D01*
Y45147D01*
X141220Y42526D01*
X144998D01*
Y41698D01*
X152600D01*
Y4900D01*
X4300D01*
G37*
%LPC*%
G75*
G36*
G01X38702Y81302D02*
Y73498D01*
X30898D01*
Y81302D01*
X32498D01*
Y87898D01*
X30898D01*
Y95702D01*
X38702D01*
Y87898D01*
X37102D01*
Y81302D01*
X38702D01*
G37*
G36*
G01X50502Y81202D02*
Y73398D01*
X42698D01*
Y81202D01*
X44298D01*
Y87898D01*
X42698D01*
Y95702D01*
X50502D01*
Y87898D01*
X48902D01*
Y81202D01*
X50502D01*
G37*
G36*
G01X86543Y75998D02*
Y70993D01*
X77441D01*
Y85607D01*
X86543D01*
Y80602D01*
X90857D01*
Y85607D01*
X93106D01*
Y87459D01*
X97849Y92202D01*
X115532D01*
G02X119068I1768J-2302D01*
G01X124198D01*
Y93802D01*
X132002D01*
Y92202D01*
X136698D01*
Y105302D01*
X151502D01*
Y84498D01*
X136698D01*
Y87598D01*
X132002D01*
Y85998D01*
X124198D01*
Y87598D01*
X119068D01*
G02X115532I-1768J2302D01*
G01X99755D01*
X98447Y86290D01*
G03X98729Y85607I283J-283D01*
G01X99959D01*
Y70993D01*
X90857D01*
Y75998D01*
X86543D01*
G37*
G36*
G01X29302Y32602D02*
Y24798D01*
X21498D01*
Y32602D01*
X23098D01*
Y36998D01*
X21498D01*
Y44802D01*
X29302D01*
Y36998D01*
X27702D01*
Y32602D01*
X29302D01*
G37*
G36*
G01X143702Y25598D02*
Y23998D01*
X135898D01*
Y31802D01*
X143702D01*
Y30202D01*
X145532D01*
G02Y25598I1768J-2302D01*
G01X143702D01*
G37*
G36*
G01X130702Y17198D02*
Y15598D01*
X122898D01*
Y23402D01*
X130702D01*
Y21802D01*
X135898D01*
Y23402D01*
X143702D01*
Y15598D01*
X135898D01*
Y17198D01*
X130702D01*
G37*
G36*
G01X21353Y9098D02*
X14347D01*
X10398Y13047D01*
Y21753D01*
X13200Y24554D01*
X13098Y24798D01*
Y32602D01*
X20902D01*
Y24798D01*
X19302D01*
Y24328D01*
G03X19729Y23929I400J0D01*
G02X23844Y19142I271J-3929D01*
G03X24517Y18772I390J-87D01*
G01X25047Y19302D01*
X29498D01*
Y20902D01*
X37302D01*
Y13098D01*
X29498D01*
Y14698D01*
X26953D01*
X21353Y9098D01*
G37*
G36*
G01X95602Y12898D02*
Y7798D01*
X74798D01*
Y22602D01*
X87898D01*
Y30247D01*
X86547Y31598D01*
X85902D01*
Y29998D01*
X78098D01*
Y31598D01*
X75353D01*
X75302Y31547D01*
Y28247D01*
X71453Y24398D01*
X69002D01*
Y22798D01*
X61198D01*
Y30602D01*
X69002D01*
Y29002D01*
X69547D01*
X70698Y30153D01*
Y33453D01*
X73447Y36202D01*
X78098D01*
Y37802D01*
X85902D01*
Y36202D01*
X88453D01*
X92502Y32153D01*
Y22602D01*
X95602D01*
Y17502D01*
X99447D01*
X102122Y20177D01*
Y36387D01*
X91605D01*
Y63599D01*
X117243D01*
Y53163D01*
G03X117926Y52881I400J1D01*
G01X122961Y57916D01*
G03X122678Y58599I-283J283D01*
G01X121898D01*
Y66402D01*
X129702D01*
Y58598D01*
X128102D01*
Y56547D01*
X119246Y47692D01*
X117243D01*
Y36387D01*
X106726D01*
Y18271D01*
X101353Y12898D01*
X95602D01*
G37*
G36*
G01X20902Y36998D02*
X13098D01*
Y44802D01*
X14698D01*
Y49498D01*
X13798D01*
Y57347D01*
X12098Y59047D01*
Y74998D01*
X6998D01*
Y95802D01*
X21802D01*
Y74998D01*
X16702D01*
Y60953D01*
X16916Y60739D01*
G03X17598Y61022I282J283D01*
G01Y65302D01*
X18498D01*
Y67153D01*
X21547Y70202D01*
X24932D01*
G02X24984Y65560I1768J-2301D01*
G01X24931Y65598D01*
X24002D01*
Y57302D01*
X27902D01*
Y55702D01*
X28247D01*
X32498Y59953D01*
Y65098D01*
X30898D01*
Y72902D01*
X38702D01*
Y65098D01*
X37102D01*
Y58047D01*
X30153Y51098D01*
X27902D01*
Y49498D01*
X21498D01*
Y57498D01*
X20202D01*
Y49498D01*
X19302D01*
Y44802D01*
X20902D01*
Y36998D01*
G37*
G36*
G01X69002Y14398D02*
X61198D01*
Y15998D01*
X56347D01*
X45748Y26597D01*
X45502Y26495D01*
Y26398D01*
X37698D01*
Y32802D01*
X45698D01*
Y34098D01*
X37698D01*
Y40502D01*
X39298D01*
Y46753D01*
X42647Y50102D01*
X43498D01*
Y51898D01*
X39598D01*
Y59702D01*
X40498D01*
Y61253D01*
X43561Y64316D01*
G03X43278Y64998I-283J282D01*
G01X42698D01*
Y72802D01*
X50502D01*
Y64998D01*
X48902D01*
Y63147D01*
X45798Y60043D01*
G03X45939Y59702I141J-141D01*
G01X46002D01*
Y51702D01*
X47298D01*
Y59702D01*
X48198D01*
Y60553D01*
X53122Y65477D01*
X53132Y65541D01*
G02X56441Y62232I2868J-441D01*
G01X56377Y62222D01*
X53702Y59547D01*
Y51898D01*
X49902D01*
Y50102D01*
X64498D01*
Y51898D01*
X60598D01*
Y59702D01*
X61498D01*
Y62453D01*
X64647Y65602D01*
X64755D01*
G03X64896Y65943I0J200D01*
G01X61698Y69141D01*
Y70993D01*
X59449D01*
Y85607D01*
X68551D01*
Y70993D01*
X67321D01*
G03X67039Y70310I1J-400D01*
G01X67547Y69802D01*
X80932D01*
G02X82806Y64600I1768J-2302D01*
G03X82537Y63917I14J-400D01*
G01X84302Y62153D01*
Y46202D01*
X85902D01*
Y38398D01*
X78098D01*
Y46202D01*
X79698D01*
Y60247D01*
X78947Y60998D01*
X66553D01*
X66102Y60547D01*
Y59702D01*
X67002D01*
Y51702D01*
X68298D01*
Y59702D01*
X74702D01*
Y51898D01*
X73802D01*
Y48547D01*
X70902Y45647D01*
Y43898D01*
X64498D01*
Y45498D01*
X49902D01*
Y43898D01*
X43902D01*
Y40502D01*
X45502D01*
Y36702D01*
X52298D01*
Y38232D01*
G02X56902I2302J1768D01*
G01Y33821D01*
X54279Y31198D01*
X53502D01*
Y30298D01*
X49522D01*
G03X49239Y29616I0J-400D01*
G01X58253Y20602D01*
X61198D01*
Y22202D01*
X69002D01*
Y14398D01*
G37*
G54D21*
X137500Y137500D03*
G54D22*
X16300Y140900D03*
X41800Y17000D03*
X111300Y19500D03*
X128100Y98300D03*
X144400Y127400D03*
%LPD*%
G75*
G54D10*
X20000Y20000D03*
X137500Y137500D03*
G54D20*
G01X17000Y28700D02*
Y25100D01*
X12700Y20800D01*
Y14000D01*
X15300Y11400D01*
X20400D01*
X26000Y17000D01*
X33400D01*
G01X26700Y67900D02*
X22500D01*
X20800Y66200D01*
Y61400D01*
G01X14400Y80400D02*
Y60000D01*
X17000Y57400D01*
Y53400D01*
G01D02*
Y40900D01*
G01X14400Y90400D02*
Y96002D01*
G01X6798Y90400D02*
X14400D01*
G01D02*
X22002D01*
G01X28600Y136400D02*
Y147600D01*
X25600Y150600D01*
X10200D01*
X7400Y147800D01*
Y105300D01*
X12500Y100200D01*
X34800D01*
G01X16300Y132500D02*
Y120300D01*
X18200Y118400D01*
X22900D01*
G01X16300Y140900D02*
Y145002D01*
G01X12198Y140900D02*
X16300D01*
G01D02*
X20402D01*
G01X16300Y132500D02*
X21900D01*
X24600Y129800D01*
X30200D01*
X33000Y132600D01*
X36600D01*
G01X41800Y12898D02*
Y17000D01*
G01D02*
Y21102D01*
G01Y17000D02*
X45902D01*
G01X25400Y40900D02*
Y28700D01*
G01X46700Y47800D02*
X43600D01*
X41600Y45800D01*
Y37300D01*
G01X49600Y33500D02*
X53326D01*
X54600Y34774D01*
Y40000D01*
G01X65100Y18300D02*
X57300D01*
X46000Y29600D01*
X41600D01*
G01X46700Y47800D02*
X67700D01*
G01X34800Y69000D02*
Y59000D01*
X29200Y53400D01*
X24700D01*
G01X42800Y55800D02*
Y60300D01*
X46600Y64100D01*
Y68900D01*
G01X50500Y55800D02*
Y59600D01*
X56000Y65100D01*
G01X34800Y100200D02*
X46600D01*
G01X34800Y91800D02*
Y77400D01*
G01X46600Y91800D02*
Y77300D01*
G01X30800Y118400D02*
X43100D01*
G01X72976Y106607D02*
X56293D01*
X51000Y111900D01*
Y118400D01*
G01Y140300D02*
X36600D01*
G01X80200Y7598D02*
Y15200D01*
G01D02*
Y22802D01*
G01X74598Y15200D02*
X80200D01*
G01X82000Y33900D02*
X74400D01*
X73000Y32500D01*
Y29200D01*
X70500Y26700D01*
X65100D01*
G01X82700Y67500D02*
X66594D01*
X64000Y70094D01*
Y78300D01*
G01X71500Y55800D02*
Y49500D01*
X69800Y47800D01*
X67700D01*
G01X82000Y42300D02*
Y61200D01*
X79900Y63300D01*
X65600D01*
X63800Y61500D01*
Y55800D01*
G01X80200Y143100D02*
Y128336D01*
X72976Y121112D01*
Y106607D01*
G01X51000Y131900D02*
Y118400D01*
G01X70200Y135498D02*
Y143100D01*
G01D02*
Y150702D01*
G01X64598Y143100D02*
X70200D01*
G01X101400Y132100D02*
X95700D01*
X93000Y134800D01*
Y137200D01*
X87100Y143100D01*
X80200D01*
G01X104424Y49993D02*
Y19224D01*
X100400Y15200D01*
X90200D01*
G01X82000Y33900D02*
X87500D01*
X90200Y31200D01*
Y15200D01*
G01X125800Y62500D02*
Y57500D01*
X118293Y49993D01*
X104424D01*
G01X95408Y78300D02*
X81992D01*
G01X117300Y89900D02*
X98802D01*
X95408Y86506D01*
Y78300D01*
G01X101400Y132100D02*
Y119000D01*
G01X109300D02*
X121700D01*
G01X101400Y140500D02*
X113300D01*
G01X111300Y15398D02*
Y19500D01*
G01D02*
X115402D01*
G01X139800Y27900D02*
X147300D01*
G01X125800Y44800D02*
Y40774D01*
X124526Y39500D01*
G01D02*
X121200D01*
G01X124526D02*
X129726Y34300D01*
X131800D01*
X133800Y36300D01*
Y41000D01*
G01X111300Y27900D02*
X118900D01*
G01D02*
X126800D01*
G01Y19500D02*
X139800D01*
G01X148900Y44900D02*
X148827Y44827D01*
X142173D01*
X140900Y46100D01*
Y48700D01*
G01D02*
X133800D01*
G01X128100Y98300D02*
Y102402D01*
G01X123998Y98300D02*
X128100D01*
G01D02*
X132202D01*
G01X136498Y99900D02*
X144100D01*
G01X128100Y89900D02*
X117300D01*
G01X144100D02*
X128100D01*
G01X113400Y78300D02*
X118850D01*
X121050Y80500D01*
X148400D01*
X151450Y77450D01*
Y68550D01*
X145800Y62900D01*
G01X137800Y70900D02*
X125800D01*
G01X140298Y127400D02*
X144400D01*
G01X117200Y132500D02*
X121300D01*
X124100Y129700D01*
Y128500D01*
G01X129600Y119000D02*
X144400D01*
G01X129600D02*
Y136000D01*
X125100Y140500D01*
X121000D01*
G01X148900Y52600D02*
Y59800D01*
X145800Y62900D01*
G01D02*
X141700D01*
G01X144100Y99900D02*
Y105502D01*
G01Y99900D02*
X151702D01*
G01X145500Y70900D02*
Y75200D01*
X144000Y76700D01*
G01X144400Y127400D02*
Y131502D01*
G01Y127400D02*
X148502D01*
G54D11*
X17000Y40900D03*
Y28700D03*
X16300Y132500D03*
Y140900D03*
X25400Y40900D03*
Y28700D03*
X41800Y17000D03*
X33400D03*
X34800Y69000D03*
X46600Y68900D03*
X34800Y91800D03*
Y100200D03*
X46600Y91800D03*
Y100200D03*
X34800Y77400D03*
X46600Y77300D03*
X51000Y131900D03*
Y140300D03*
X65100Y26700D03*
Y18300D03*
X82000Y33900D03*
Y42300D03*
X111300Y19500D03*
Y27900D03*
X101400Y132100D03*
Y140500D03*
X126800Y27900D03*
Y19500D03*
X139800D03*
Y27900D03*
X125800Y62500D03*
Y70900D03*
X128100Y98300D03*
Y89900D03*
X144400Y127400D03*
Y119000D03*
G54D12*
X17000Y53400D03*
X20800Y61400D03*
X24700Y53400D03*
X50500Y55800D03*
X42800D03*
X46700Y47800D03*
X71500Y55800D03*
X63800D03*
X67700Y47800D03*
X137800Y70900D03*
X141700Y62900D03*
X117200Y132500D03*
X121000Y140500D03*
X113300D03*
X145500Y70900D03*
G54D13*
X14400Y90400D03*
Y80400D03*
X144100Y89900D03*
Y99900D03*
G54D14*
X22900Y118400D03*
X43100D03*
X51000D03*
X30800D03*
X109300Y119000D03*
X101400D03*
X129600D03*
X121700D03*
G54D15*
X41600Y37300D03*
Y29600D03*
X49600Y33500D03*
X36600Y132600D03*
Y140300D03*
X28600Y136400D03*
X133800Y41000D03*
Y48700D03*
X125800Y44800D03*
X140900Y48700D03*
X148900Y44900D03*
Y52600D03*
G54D16*
X26700Y67900D03*
X54600Y40000D03*
X56000Y65100D03*
X82700Y67500D03*
X121200Y39500D03*
X118900Y27900D03*
X117300Y89900D03*
X124100Y128500D03*
X147300Y27900D03*
X144000Y76700D03*
G54D17*
X80200Y15200D03*
Y143100D03*
X70200D03*
X90200Y15200D03*
G54D18*
X72976Y106607D03*
X104424Y49993D03*
G54D19*
X81992Y78300D03*
X64000D03*
X95408D03*
X113400D03*
M02*
